# MagicaVoxel @ Ephtracy

# group
o 

# material
mtllib maze_roofless.mtl
usemtl palette

# normals
vn -1 0 0
vn 1 0 0
vn 0 0 1
vn 0 0 -1
vn 0 -1 0
vn 0 1 0

# texcoords
vt 0.869141 0.5
vt 0.896484 0.5
vt 0.900391 0.5
vt 0.931641 0.5
vt 0.935547 0.5
vt 0.978516 0.5

# verts
v -12.8 0 11.8
v -12.8 0 -12.8
v -12.8 1.8 11.8
v -12.8 1.8 9.4
v -12.8 1.8 -1.4
v -12.8 1.8 -12.8
v -12.8 3.6 9.4
v -12.8 3.6 -1.4
v -12.8 4.2 11.8
v -12.8 4.2 -12.8
v -10.4 1.8 5.8
v -10.4 1.8 4
v -10.4 3.6 5.8
v -10.4 3.6 4
v -8.6 1.8 -3.2
v -8.6 1.8 -5
v -8.6 1.8 -10.4
v -8.6 1.8 -12.2
v -8.6 3.6 -3.2
v -8.6 3.6 -5
v -8.6 4.2 -10.4
v -8.6 4.2 -12.2
v -6.8 1.8 9.4
v -6.8 1.8 5.8
v -6.8 1.8 -1.4
v -6.8 1.8 -3.2
v -6.8 3.6 9.4
v -6.8 3.6 5.8
v -6.8 3.6 -1.4
v -6.8 3.6 -3.2
v -5 1.8 -5
v -5 1.8 -6.8
v -5 1.8 -8.6
v -5 1.8 -10.4
v -5 3.6 -5
v -5 3.6 -6.8
v -5 3.6 -8.6
v -5 3.6 -10.4
v 0.4 1.8 9.4
v 0.4 1.8 7.6
v 0.4 1.8 5.8
v 0.4 1.8 4
v 0.4 1.8 -1.4
v 0.4 1.8 -6.8
v 0.4 1.8 -8.6
v 0.4 1.8 -10.4
v 0.4 3.6 9.4
v 0.4 3.6 7.6
v 0.4 3.6 5.8
v 0.4 3.6 4
v 0.4 3.6 -1.4
v 0.4 3.6 -6.8
v 0.4 3.6 -8.6
v 0.4 3.6 -10.4
v 2.2 1.8 4
v 2.2 1.8 2.2
v 2.2 3.6 4
v 2.2 3.6 2.2
v 5.8 1.8 2.2
v 5.8 1.8 0.400001
v 5.8 3.6 2.2
v 5.8 3.6 0.400001
v 7.6 1.8 -5
v 7.6 1.8 -8.6
v 7.6 3.6 -5
v 7.6 3.6 -8.6
v 9.4 1.8 0.400001
v 9.4 1.8 -3.2
v 9.4 4.2 0.400001
v 9.4 4.2 -3.2
v 11.2 1.8 11.2
v 11.2 1.8 7.6
v 11.2 1.8 6.4
v 11.2 1.8 0.400001
v 11.2 1.8 -3.2
v 11.2 1.8 -12.2
v 11.2 3.6 11.2
v 11.2 3.6 7.6
v 11.2 4.2 11.2
v 11.2 4.2 7.6
v 11.2 4.2 6.4
v 11.2 4.2 0.400001
v 11.2 4.2 -3.2
v 11.2 4.2 -12.2
v 12.4 1.8 7.6
v 12.4 1.8 6.4
v 12.4 3.6 7.6
v 12.4 3.6 6.4
v 12.4 4.2 7.6
v 12.4 4.2 6.4
v -12.2 1.8 7.6
v -12.2 1.8 -1.4
v -12.2 1.8 -3.2
v -12.2 1.8 -12.2
v -12.2 3.6 7.6
v -12.2 3.6 -1.4
v -12.2 4.2 7.6
v -12.2 4.2 -1.4
v -12.2 4.2 -3.2
v -12.2 4.2 -12.2
v -10.4 1.8 -1.4
v -10.4 1.8 -3.2
v -10.4 4.2 -1.4
v -10.4 4.2 -3.2
v -8.6 1.8 11.2
v -8.6 1.8 7.6
v -8.6 3.6 11.2
v -8.6 3.6 7.6
v -8.6 4.2 11.2
v -8.6 4.2 7.6
v -6.8 1.8 -10.4
v -6.8 1.8 -12.2
v -6.8 4.2 -10.4
v -6.8 4.2 -12.2
v -5 1.8 7.6
v -5 1.8 4
v -5 1.8 -1.4
v -5 1.8 -3.2
v -5 3.6 7.6
v -5 3.6 4
v -5 3.6 -1.4
v -5 3.6 -3.2
v -3.2 1.8 9.4
v -3.2 1.8 7.6
v -3.2 1.8 -3.2
v -3.2 1.8 -6.8
v -3.2 1.8 -8.6
v -3.2 1.8 -10.4
v -3.2 3.6 9.4
v -3.2 3.6 7.6
v -3.2 3.6 -3.2
v -3.2 3.6 -6.8
v -3.2 3.6 -8.6
v -3.2 3.6 -10.4
v 5.8 1.8 -1.4
v 5.8 1.8 -6.8
v 5.8 3.6 -1.4
v 5.8 3.6 -6.8
v 7.6 1.8 2.2
v 7.6 1.8 0.400001
v 7.6 3.6 2.2
v 7.6 3.6 0.400001
v 9.4 1.8 9.4
v 9.4 1.8 7.6
v 9.4 1.8 5.8
v 9.4 1.8 2.2
v 9.4 1.8 -5
v 9.4 1.8 -10.4
v 9.4 3.6 9.4
v 9.4 3.6 7.6
v 9.4 3.6 5.8
v 9.4 3.6 2.2
v 9.4 3.6 -5
v 9.4 3.6 -10.4
v 12.8 0 11.8
v 12.8 0 -12.8
v 12.8 1.8 11.8
v 12.8 1.8 7.6
v 12.8 1.8 6.4
v 12.8 1.8 -12.8
v 12.8 3.6 11.8
v 12.8 3.6 7.6
v 12.8 3.6 6.4
v 12.8 4.2 11.8
v 12.8 4.2 -12.8
v -12.8 0 11.8
v -12.8 1.8 11.8
v -12.8 4.2 11.8
v -10.4 1.8 11.8
v -10.4 3.6 11.8
v -3.2 1.8 11.8
v -3.2 3.6 11.8
v -2 1.8 11.8
v -2 3.6 11.8
v -0.8 1.8 11.8
v -0.8 3.6 11.8
v 0.5 1.8 11.8
v 0.5 3.6 11.8
v 12.8 0 11.8
v 12.8 1.8 11.8
v 12.8 3.6 11.8
v 12.8 4.2 11.8
v -6.8 1.8 9.4
v -6.8 3.6 9.4
v -3.2 1.8 9.4
v -3.2 3.6 9.4
v 0.4 1.8 9.4
v 0.4 3.6 9.4
v 9.4 1.8 9.4
v 9.4 3.6 9.4
v 11.2 1.8 6.4
v 11.2 4.2 6.4
v 12.4 1.8 6.4
v 12.4 3.6 6.4
v 12.4 4.2 6.4
v -10.4 1.8 5.8
v -10.4 3.6 5.8
v -6.8 1.8 5.8
v -6.8 3.6 5.8
v 0.4 1.8 5.8
v 0.4 3.6 5.8
v 9.4 1.8 5.8
v 9.4 3.6 5.8
v 9.4 1.8 0.400001
v 9.4 4.2 0.400001
v 11.2 1.8 0.400001
v 11.2 4.2 0.400001
v -12.2 1.8 -1.4
v -12.2 3.6 -1.4
v -12.2 4.2 -1.4
v -10.4 1.8 -1.4
v -10.4 4.2 -1.4
v -6.8 1.8 -1.4
v -6.8 3.6 -1.4
v -5 1.8 -1.4
v -5 3.6 -1.4
v 0.4 1.8 -1.4
v 0.4 3.6 -1.4
v 5.8 1.8 -1.4
v 5.8 3.6 -1.4
v -8.6 1.8 -3.2
v -8.6 3.6 -3.2
v -6.8 1.8 -3.2
v -6.8 3.6 -3.2
v -5 1.8 -3.2
v -5 3.6 -3.2
v -3.2 1.8 -3.2
v -3.2 3.6 -3.2
v 7.6 1.8 -5
v 7.6 3.6 -5
v 9.4 1.8 -5
v 9.4 3.6 -5
v -5 1.8 -8.6
v -5 3.6 -8.6
v -3.2 1.8 -8.6
v -3.2 3.6 -8.6
v 0.4 1.8 -8.6
v 0.4 3.6 -8.6
v 7.6 1.8 -8.6
v 7.6 3.6 -8.6
v -8.6 1.8 -10.4
v -8.6 4.2 -10.4
v -6.8 1.8 -10.4
v -6.8 4.2 -10.4
v -12.2 1.8 -12.2
v -12.2 4.2 -12.2
v -8.6 1.8 -12.2
v -8.6 4.2 -12.2
v -6.8 1.8 -12.2
v -6.8 4.2 -12.2
v -2 1.8 -12.2
v -2 3.6 -12.2
v -0.8 1.8 -12.2
v -0.8 3.6 -12.2
v 11.2 1.8 -12.2
v 11.2 4.2 -12.2
v -8.6 1.8 11.2
v -8.6 3.6 11.2
v -8.6 4.2 11.2
v -3.2 1.8 11.2
v -3.2 3.6 11.2
v -2 1.8 11.2
v -2 3.6 11.2
v -0.8 1.8 11.2
v -0.8 3.6 11.2
v 0.4 1.8 11.2
v 0.4 3.6 11.2
v 11.2 1.8 11.2
v 11.2 3.6 11.2
v 11.2 4.2 11.2
v -12.2 1.8 7.6
v -12.2 3.6 7.6
v -12.2 4.2 7.6
v -8.6 1.8 7.6
v -8.6 3.6 7.6
v -8.6 4.2 7.6
v -5 1.8 7.6
v -5 3.6 7.6
v -3.2 1.8 7.6
v -3.2 3.6 7.6
v 0.4 1.8 7.6
v 0.4 3.6 7.6
v 9.4 1.8 7.6
v 9.4 3.6 7.6
v 11.2 1.8 7.6
v 11.2 3.6 7.6
v 11.2 4.2 7.6
v 12.4 1.8 7.6
v 12.4 3.6 7.6
v 12.4 4.2 7.6
v -10.4 1.8 4
v -10.4 3.6 4
v -5 1.8 4
v -5 3.6 4
v 0.4 1.8 4
v 0.4 3.6 4
v 2.2 1.8 4
v 2.2 3.6 4
v 2.2 1.8 2.2
v 2.2 3.6 2.2
v 5.8 1.8 2.2
v 5.8 3.6 2.2
v 7.6 1.8 2.2
v 7.6 3.6 2.2
v 9.4 1.8 2.2
v 9.4 3.6 2.2
v 5.8 1.8 0.400001
v 5.8 3.6 0.400001
v 7.6 1.8 0.400001
v 7.6 3.6 0.400001
v -12.2 1.8 -3.2
v -12.2 4.2 -3.2
v -10.4 1.8 -3.2
v -10.4 4.2 -3.2
v 9.4 1.8 -3.2
v 9.4 4.2 -3.2
v 11.2 1.8 -3.2
v 11.2 4.2 -3.2
v -8.6 1.8 -5
v -8.6 3.6 -5
v -5 1.8 -5
v -5 3.6 -5
v -5 1.8 -6.8
v -5 3.6 -6.8
v -3.2 1.8 -6.8
v -3.2 3.6 -6.8
v 0.4 1.8 -6.8
v 0.4 3.6 -6.8
v 5.8 1.8 -6.8
v 5.8 3.6 -6.8
v -5 1.8 -10.4
v -5 3.6 -10.4
v -3.2 1.8 -10.4
v -3.2 3.6 -10.4
v 0.4 1.8 -10.4
v 0.4 3.6 -10.4
v 9.4 1.8 -10.4
v 9.4 3.6 -10.4
v -12.8 0 -12.8
v -12.8 1.8 -12.8
v -12.8 4.2 -12.8
v -2 1.8 -12.8
v -2 3.6 -12.8
v -0.8 1.8 -12.8
v -0.8 3.6 -12.8
v 12.8 0 -12.8
v 12.8 1.8 -12.8
v 12.8 4.2 -12.8
v -12.8 0 11.8
v 12.8 0 11.8
v -12.8 0 -12.8
v 12.8 0 -12.8
v -8.6 1.8 11.2
v -3.2 1.8 11.2
v -2 1.8 11.2
v -0.8 1.8 11.2
v 0.4 1.8 11.2
v 11.2 1.8 11.2
v -6.8 1.8 9.4
v -3.2 1.8 9.4
v 0.4 1.8 9.4
v 9.4 1.8 9.4
v -12.2 1.8 7.6
v -8.6 1.8 7.6
v -5 1.8 7.6
v -3.2 1.8 7.6
v 0.4 1.8 7.6
v 9.4 1.8 7.6
v 11.2 1.8 7.6
v 12.4 1.8 7.6
v 11.2 1.8 6.4
v 12.4 1.8 6.4
v -10.4 1.8 5.8
v -6.8 1.8 5.8
v 0.4 1.8 5.8
v 9.4 1.8 5.8
v -10.4 1.8 4
v -5 1.8 4
v 0.4 1.8 4
v 2.2 1.8 4
v 2.2 1.8 2.2
v 5.8 1.8 2.2
v 7.6 1.8 2.2
v 9.4 1.8 2.2
v 5.8 1.8 0.400001
v 7.6 1.8 0.400001
v 9.4 1.8 0.400001
v 11.2 1.8 0.400001
v -12.2 1.8 -1.4
v -10.4 1.8 -1.4
v -6.8 1.8 -1.4
v -5 1.8 -1.4
v 0.4 1.8 -1.4
v 5.8 1.8 -1.4
v -12.2 1.8 -3.2
v -10.4 1.8 -3.2
v -8.6 1.8 -3.2
v -6.8 1.8 -3.2
v -5 1.8 -3.2
v -3.2 1.8 -3.2
v 9.4 1.8 -3.2
v 11.2 1.8 -3.2
v -8.6 1.8 -5
v -5 1.8 -5
v 7.6 1.8 -5
v 9.4 1.8 -5
v -5 1.8 -6.8
v -3.2 1.8 -6.8
v 0.4 1.8 -6.8
v 5.8 1.8 -6.8
v -5 1.8 -8.6
v -3.2 1.8 -8.6
v 0.4 1.8 -8.6
v 7.6 1.8 -8.6
v -8.6 1.8 -10.4
v -6.8 1.8 -10.4
v -5 1.8 -10.4
v -3.2 1.8 -10.4
v 0.4 1.8 -10.4
v 9.4 1.8 -10.4
v -12.2 1.8 -12.2
v -8.6 1.8 -12.2
v -6.8 1.8 -12.2
v -2 1.8 -12.2
v -0.8 1.8 -12.2
v 11.2 1.8 -12.2
v -6.8 3.6 9.4
v -3.2 3.6 9.4
v 0.4 3.6 9.4
v 9.4 3.6 9.4
v -5 3.6 7.6
v -3.2 3.6 7.6
v 0.4 3.6 7.6
v 9.4 3.6 7.6
v -10.4 3.6 5.8
v -6.8 3.6 5.8
v 0.4 3.6 5.8
v 9.4 3.6 5.8
v -10.4 3.6 4
v -5 3.6 4
v 0.4 3.6 4
v 2.2 3.6 4
v 2.2 3.6 2.2
v 5.8 3.6 2.2
v 7.6 3.6 2.2
v 9.4 3.6 2.2
v 5.8 3.6 0.400001
v 7.6 3.6 0.400001
v -6.8 3.6 -1.4
v -5 3.6 -1.4
v 0.4 3.6 -1.4
v 5.8 3.6 -1.4
v -8.6 3.6 -3.2
v -6.8 3.6 -3.2
v -5 3.6 -3.2
v -3.2 3.6 -3.2
v -8.6 3.6 -5
v -5 3.6 -5
v 7.6 3.6 -5
v 9.4 3.6 -5
v -5 3.6 -6.8
v -3.2 3.6 -6.8
v 0.4 3.6 -6.8
v 5.8 3.6 -6.8
v -5 3.6 -8.6
v -3.2 3.6 -8.6
v 0.4 3.6 -8.6
v 7.6 3.6 -8.6
v -5 3.6 -10.4
v -3.2 3.6 -10.4
v 0.4 3.6 -10.4
v 9.4 3.6 -10.4
v -12.8 4.2 11.8
v 12.8 4.2 11.8
v -8.6 4.2 11.2
v 11.2 4.2 11.2
v -12.2 4.2 7.6
v -8.6 4.2 7.6
v 11.2 4.2 7.6
v 12.4 4.2 7.6
v 11.2 4.2 6.4
v 12.4 4.2 6.4
v 9.4 4.2 0.400001
v 11.2 4.2 0.400001
v -12.2 4.2 -1.4
v -10.4 4.2 -1.4
v -12.2 4.2 -3.2
v -10.4 4.2 -3.2
v 9.4 4.2 -3.2
v 11.2 4.2 -3.2
v -8.6 4.2 -10.4
v -6.8 4.2 -10.4
v -12.2 4.2 -12.2
v -8.6 4.2 -12.2
v -6.8 4.2 -12.2
v 11.2 4.2 -12.2
v -12.8 4.2 -12.8
v 12.8 4.2 -12.8

# faces
f 3/6/1 2/6/1 1/6/1
f 4/6/1 2/6/1 3/6/1
f 5/6/1 2/6/1 4/6/1
f 6/6/1 2/6/1 5/6/1
f 7/4/1 4/4/1 3/4/1
f 7/5/1 5/5/1 4/5/1
f 8/4/1 6/4/1 5/4/1
f 8/5/1 5/5/1 7/5/1
f 9/4/1 7/4/1 3/4/1
f 9/4/1 8/4/1 7/4/1
f 10/4/1 6/4/1 8/4/1
f 10/4/1 8/4/1 9/4/1
f 13/5/1 12/5/1 11/5/1
f 14/5/1 12/5/1 13/5/1
f 19/4/1 16/4/1 15/4/1
f 20/4/1 16/4/1 19/4/1
f 21/4/1 18/4/1 17/4/1
f 22/4/1 18/4/1 21/4/1
f 27/5/1 24/5/1 23/5/1
f 28/5/1 24/5/1 27/5/1
f 29/4/1 26/4/1 25/4/1
f 30/4/1 26/4/1 29/4/1
f 35/4/1 32/4/1 31/4/1
f 36/4/1 32/4/1 35/4/1
f 37/4/1 34/4/1 33/4/1
f 38/4/1 34/4/1 37/4/1
f 47/5/1 40/5/1 39/5/1
f 48/5/1 40/5/1 47/5/1
f 49/4/1 42/4/1 41/4/1
f 50/4/1 42/4/1 49/4/1
f 51/4/1 44/4/1 43/4/1
f 52/4/1 44/4/1 51/4/1
f 53/4/1 46/4/1 45/4/1
f 54/4/1 46/4/1 53/4/1
f 57/4/1 56/4/1 55/4/1
f 58/4/1 56/4/1 57/4/1
f 61/4/1 60/4/1 59/4/1
f 62/4/1 60/4/1 61/4/1
f 65/4/1 64/4/1 63/4/1
f 66/4/1 64/4/1 65/4/1
f 69/4/1 68/4/1 67/4/1
f 70/4/1 68/4/1 69/4/1
f 77/5/1 72/5/1 71/5/1
f 78/5/1 72/5/1 77/5/1
f 79/4/1 78/4/1 77/4/1
f 80/4/1 78/4/1 79/4/1
f 81/4/1 74/4/1 73/4/1
f 82/4/1 74/4/1 81/4/1
f 83/4/1 76/4/1 75/4/1
f 84/4/1 76/4/1 83/4/1
f 87/1/1 86/1/1 85/1/1
f 88/1/1 86/1/1 87/1/1
f 89/4/1 88/4/1 87/4/1
f 90/4/1 88/4/1 89/4/1
f 91/5/2 92/5/2 95/5/2
f 95/5/2 92/5/2 96/5/2
f 95/4/2 96/4/2 97/4/2
f 97/4/2 96/4/2 98/4/2
f 93/4/2 94/4/2 99/4/2
f 99/4/2 94/4/2 100/4/2
f 101/4/2 102/4/2 103/4/2
f 103/4/2 102/4/2 104/4/2
f 105/5/2 106/5/2 107/5/2
f 107/5/2 106/5/2 108/5/2
f 107/4/2 108/4/2 109/4/2
f 109/4/2 108/4/2 110/4/2
f 111/4/2 112/4/2 113/4/2
f 113/4/2 112/4/2 114/4/2
f 115/5/2 116/5/2 119/5/2
f 119/5/2 116/5/2 120/5/2
f 117/4/2 118/4/2 121/4/2
f 121/4/2 118/4/2 122/4/2
f 123/5/2 124/5/2 129/5/2
f 129/5/2 124/5/2 130/5/2
f 125/4/2 126/4/2 131/4/2
f 131/4/2 126/4/2 132/4/2
f 127/4/2 128/4/2 133/4/2
f 133/4/2 128/4/2 134/4/2
f 135/4/2 136/4/2 137/4/2
f 137/4/2 136/4/2 138/4/2
f 139/4/2 140/4/2 141/4/2
f 141/4/2 140/4/2 142/4/2
f 143/5/2 144/5/2 149/5/2
f 149/5/2 144/5/2 150/5/2
f 145/4/2 146/4/2 151/4/2
f 151/4/2 146/4/2 152/4/2
f 147/4/2 148/4/2 153/4/2
f 153/4/2 148/4/2 154/4/2
f 155/6/2 156/6/2 157/6/2
f 157/6/2 156/6/2 158/6/2
f 158/6/2 156/6/2 159/6/2
f 159/6/2 156/6/2 160/6/2
f 157/5/2 158/5/2 161/5/2
f 158/3/2 159/3/2 162/3/2
f 161/5/2 158/5/2 162/5/2
f 159/4/2 160/4/2 163/4/2
f 162/3/2 159/3/2 163/3/2
f 161/4/2 162/4/2 164/4/2
f 162/4/2 163/4/2 164/4/2
f 163/4/2 160/4/2 165/4/2
f 164/4/2 163/4/2 165/4/2
f 169/6/3 167/6/3 166/6/3
f 169/4/3 168/4/3 167/4/3
f 170/4/3 168/4/3 169/4/3
f 171/6/3 169/6/3 166/6/3
f 171/5/3 170/5/3 169/5/3
f 172/4/3 168/4/3 170/4/3
f 172/5/3 170/5/3 171/5/3
f 173/6/3 171/6/3 166/6/3
f 173/4/3 172/4/3 171/4/3
f 174/4/3 168/4/3 172/4/3
f 174/4/3 172/4/3 173/4/3
f 175/6/3 173/6/3 166/6/3
f 175/3/3 174/3/3 173/3/3
f 176/4/3 168/4/3 174/4/3
f 176/3/3 174/3/3 175/3/3
f 177/6/3 175/6/3 166/6/3
f 177/4/3 176/4/3 175/4/3
f 178/4/3 168/4/3 176/4/3
f 178/4/3 176/4/3 177/4/3
f 179/6/3 177/6/3 166/6/3
f 180/5/3 178/5/3 177/5/3
f 180/6/3 177/6/3 179/6/3
f 181/4/3 168/4/3 178/4/3
f 181/5/3 178/5/3 180/5/3
f 182/4/3 168/4/3 181/4/3
f 185/5/3 184/5/3 183/5/3
f 186/5/3 184/5/3 185/5/3
f 189/5/3 188/5/3 187/5/3
f 190/5/3 188/5/3 189/5/3
f 193/4/3 192/4/3 191/4/3
f 194/4/3 192/4/3 193/4/3
f 195/4/3 192/4/3 194/4/3
f 198/5/3 197/5/3 196/5/3
f 199/5/3 197/5/3 198/5/3
f 202/4/3 201/4/3 200/4/3
f 203/4/3 201/4/3 202/4/3
f 206/4/3 205/4/3 204/4/3
f 207/4/3 205/4/3 206/4/3
f 211/4/3 209/4/3 208/4/3
f 211/4/3 210/4/3 209/4/3
f 212/4/3 210/4/3 211/4/3
f 215/4/3 214/4/3 213/4/3
f 216/4/3 214/4/3 215/4/3
f 219/4/3 218/4/3 217/4/3
f 220/4/3 218/4/3 219/4/3
f 223/4/3 222/4/3 221/4/3
f 224/4/3 222/4/3 223/4/3
f 227/4/3 226/4/3 225/4/3
f 228/4/3 226/4/3 227/4/3
f 231/4/3 230/4/3 229/4/3
f 232/4/3 230/4/3 231/4/3
f 235/4/3 234/4/3 233/4/3
f 236/4/3 234/4/3 235/4/3
f 239/4/3 238/4/3 237/4/3
f 240/4/3 238/4/3 239/4/3
f 243/4/3 242/4/3 241/4/3
f 244/4/3 242/4/3 243/4/3
f 247/4/3 246/4/3 245/4/3
f 248/4/3 246/4/3 247/4/3
f 251/4/3 250/4/3 249/4/3
f 252/4/3 250/4/3 251/4/3
f 253/2/3 252/2/3 251/2/3
f 254/4/3 250/4/3 252/4/3
f 254/2/3 252/2/3 253/2/3
f 255/4/3 254/4/3 253/4/3
f 256/4/3 250/4/3 254/4/3
f 256/4/3 254/4/3 255/4/3
f 257/5/4 258/5/4 260/5/4
f 258/4/4 259/4/4 261/4/4
f 260/5/4 258/5/4 261/5/4
f 260/4/4 261/4/4 262/4/4
f 261/4/4 259/4/4 263/4/4
f 262/4/4 261/4/4 263/4/4
f 262/3/4 263/3/4 264/3/4
f 263/4/4 259/4/4 265/4/4
f 264/3/4 263/3/4 265/3/4
f 264/4/4 265/4/4 266/4/4
f 265/4/4 259/4/4 267/4/4
f 266/4/4 265/4/4 267/4/4
f 266/5/4 267/5/4 268/5/4
f 267/4/4 259/4/4 269/4/4
f 268/5/4 267/5/4 269/5/4
f 269/4/4 259/4/4 270/4/4
f 271/5/4 272/5/4 274/5/4
f 272/4/4 273/4/4 275/4/4
f 274/5/4 272/5/4 275/5/4
f 275/4/4 273/4/4 276/4/4
f 277/5/4 278/5/4 279/5/4
f 279/5/4 278/5/4 280/5/4
f 281/5/4 282/5/4 283/5/4
f 283/5/4 282/5/4 284/5/4
f 285/5/4 286/5/4 288/5/4
f 286/4/4 287/4/4 289/4/4
f 288/5/4 286/5/4 289/5/4
f 289/4/4 287/4/4 290/4/4
f 291/5/4 292/5/4 293/5/4
f 293/5/4 292/5/4 294/5/4
f 295/4/4 296/4/4 297/4/4
f 297/4/4 296/4/4 298/4/4
f 299/4/4 300/4/4 301/4/4
f 301/4/4 300/4/4 302/4/4
f 303/4/4 304/4/4 305/4/4
f 305/4/4 304/4/4 306/4/4
f 307/4/4 308/4/4 309/4/4
f 309/4/4 308/4/4 310/4/4
f 311/4/4 312/4/4 313/4/4
f 313/4/4 312/4/4 314/4/4
f 315/4/4 316/4/4 317/4/4
f 317/4/4 316/4/4 318/4/4
f 319/4/4 320/4/4 321/4/4
f 321/4/4 320/4/4 322/4/4
f 323/4/4 324/4/4 325/4/4
f 325/4/4 324/4/4 326/4/4
f 327/4/4 328/4/4 329/4/4
f 329/4/4 328/4/4 330/4/4
f 331/4/4 332/4/4 333/4/4
f 333/4/4 332/4/4 334/4/4
f 335/4/4 336/4/4 337/4/4
f 337/4/4 336/4/4 338/4/4
f 339/6/4 340/6/4 342/6/4
f 340/4/4 341/4/4 342/4/4
f 342/4/4 341/4/4 343/4/4
f 339/6/4 342/6/4 344/6/4
f 342/2/4 343/2/4 344/2/4
f 343/4/4 341/4/4 345/4/4
f 344/2/4 343/2/4 345/2/4
f 339/6/4 344/6/4 346/6/4
f 344/4/4 345/4/4 347/4/4
f 346/6/4 344/6/4 347/6/4
f 345/4/4 341/4/4 348/4/4
f 347/4/4 345/4/4 348/4/4
f 351/6/5 350/6/5 349/6/5
f 352/6/5 350/6/5 351/6/5
f 353/6/6 354/6/6 359/6/6
f 357/6/6 358/6/6 359/6/6
f 356/6/6 357/6/6 359/6/6
f 355/6/6 356/6/6 359/6/6
f 354/6/6 355/6/6 359/6/6
f 359/6/6 358/6/6 360/6/6
f 360/6/6 358/6/6 361/6/6
f 361/6/6 358/6/6 362/6/6
f 353/6/6 359/6/6 364/6/6
f 360/6/6 361/6/6 366/6/6
f 366/6/6 361/6/6 367/6/6
f 362/6/6 358/6/6 368/6/6
f 368/6/6 358/6/6 369/6/6
f 366/6/6 367/6/6 371/6/6
f 369/6/6 370/6/6 371/6/6
f 368/6/6 369/6/6 371/6/6
f 367/6/6 368/6/6 371/6/6
f 365/6/6 366/6/6 371/6/6
f 371/6/6 370/6/6 372/6/6
f 363/6/6 364/6/6 373/6/6
f 364/6/6 359/6/6 374/6/6
f 373/6/6 364/6/6 374/6/6
f 365/6/6 371/6/6 375/6/6
f 375/6/6 371/6/6 376/6/6
f 363/6/6 373/6/6 377/6/6
f 365/6/6 375/6/6 378/6/6
f 378/6/6 375/6/6 379/6/6
f 377/6/6 378/6/6 381/6/6
f 379/6/6 380/6/6 381/6/6
f 378/6/6 379/6/6 381/6/6
f 376/6/6 371/6/6 384/6/6
f 381/6/6 382/6/6 385/6/6
f 383/6/6 384/6/6 386/6/6
f 384/6/6 371/6/6 387/6/6
f 386/6/6 384/6/6 387/6/6
f 387/6/6 371/6/6 388/6/6
f 381/6/6 385/6/6 389/6/6
f 363/6/6 377/6/6 389/6/6
f 386/6/6 387/6/6 389/6/6
f 377/6/6 381/6/6 389/6/6
f 385/6/6 386/6/6 389/6/6
f 389/6/6 387/6/6 390/6/6
f 390/6/6 387/6/6 391/6/6
f 391/6/6 387/6/6 392/6/6
f 392/6/6 387/6/6 393/6/6
f 393/6/6 387/6/6 394/6/6
f 390/6/6 391/6/6 396/6/6
f 396/6/6 391/6/6 397/6/6
f 397/6/6 391/6/6 398/6/6
f 392/6/6 393/6/6 399/6/6
f 399/6/6 393/6/6 400/6/6
f 394/6/6 387/6/6 401/6/6
f 395/6/6 396/6/6 403/6/6
f 396/6/6 397/6/6 403/6/6
f 401/6/6 402/6/6 405/6/6
f 394/6/6 401/6/6 405/6/6
f 405/6/6 402/6/6 406/6/6
f 403/6/6 404/6/6 407/6/6
f 400/6/6 393/6/6 408/6/6
f 408/6/6 393/6/6 409/6/6
f 394/6/6 405/6/6 410/6/6
f 403/6/6 407/6/6 411/6/6
f 409/6/6 410/6/6 411/6/6
f 408/6/6 409/6/6 411/6/6
f 407/6/6 408/6/6 411/6/6
f 411/6/6 410/6/6 412/6/6
f 412/6/6 410/6/6 413/6/6
f 410/6/6 405/6/6 414/6/6
f 413/6/6 410/6/6 414/6/6
f 395/6/6 403/6/6 415/6/6
f 403/6/6 411/6/6 415/6/6
f 415/6/6 411/6/6 416/6/6
f 416/6/6 411/6/6 417/6/6
f 412/6/6 413/6/6 418/6/6
f 418/6/6 413/6/6 419/6/6
f 406/6/6 402/6/6 420/6/6
f 395/6/6 415/6/6 421/6/6
f 421/6/6 415/6/6 422/6/6
f 416/6/6 417/6/6 423/6/6
f 418/6/6 419/6/6 423/6/6
f 417/6/6 418/6/6 423/6/6
f 419/6/6 420/6/6 423/6/6
f 423/6/6 420/6/6 424/6/6
f 424/6/6 420/6/6 425/6/6
f 420/6/6 402/6/6 426/6/6
f 425/6/6 420/6/6 426/6/6
f 427/5/6 428/5/6 431/5/6
f 431/5/6 428/5/6 432/5/6
f 429/5/6 430/5/6 433/5/6
f 433/5/6 430/5/6 434/5/6
f 427/5/6 431/5/6 436/5/6
f 435/5/6 436/5/6 439/5/6
f 436/5/6 431/5/6 440/5/6
f 439/5/6 436/5/6 440/5/6
f 437/4/6 438/4/6 441/4/6
f 441/4/6 438/4/6 442/4/6
f 442/4/6 438/4/6 443/4/6
f 443/4/6 438/4/6 444/4/6
f 444/4/6 438/4/6 445/4/6
f 445/4/6 438/4/6 446/4/6
f 444/4/6 445/4/6 447/4/6
f 447/4/6 445/4/6 448/4/6
f 449/4/6 450/4/6 454/4/6
f 454/4/6 450/4/6 455/4/6
f 453/4/6 454/4/6 457/4/6
f 455/4/6 456/4/6 457/4/6
f 454/4/6 455/4/6 457/4/6
f 457/4/6 456/4/6 458/4/6
f 458/4/6 456/4/6 461/4/6
f 461/4/6 456/4/6 462/4/6
f 451/4/6 452/4/6 463/4/6
f 463/4/6 452/4/6 464/4/6
f 459/4/6 460/4/6 468/4/6
f 465/4/6 466/4/6 469/4/6
f 469/4/6 466/4/6 470/4/6
f 467/4/6 468/4/6 471/4/6
f 468/4/6 460/4/6 472/4/6
f 471/4/6 468/4/6 472/4/6
f 473/4/6 474/4/6 475/4/6
f 475/4/6 474/4/6 476/4/6
f 473/4/6 475/4/6 477/4/6
f 477/4/6 475/4/6 478/4/6
f 476/4/6 474/4/6 479/4/6
f 479/4/6 474/4/6 480/4/6
f 480/4/6 474/4/6 482/4/6
f 481/4/6 482/4/6 484/4/6
f 473/4/6 477/4/6 485/4/6
f 473/4/6 485/4/6 487/4/6
f 485/4/6 486/4/6 487/4/6
f 487/4/6 486/4/6 488/4/6
f 483/4/6 484/4/6 489/4/6
f 484/4/6 482/4/6 490/4/6
f 489/4/6 484/4/6 490/4/6
f 473/4/6 487/4/6 493/4/6
f 491/4/6 492/4/6 494/4/6
f 494/4/6 492/4/6 495/4/6
f 490/4/6 482/4/6 496/4/6
f 494/4/6 495/4/6 497/4/6
f 495/4/6 496/4/6 497/4/6
f 473/4/6 493/4/6 497/4/6
f 493/4/6 494/4/6 497/4/6
f 496/4/6 482/4/6 498/4/6
f 497/4/6 496/4/6 498/4/6
f 482/4/6 474/4/6 498/4/6
