# MagicaVoxel @ Ephtracy

# group
o 

# material
mtllib tempEndingRoom.mtl
usemtl palette

# normals
vn -1 0 0
vn 1 0 0
vn 0 -1 0
vn 0 1 0
vn 0 0 -1
vn 0 0 1

# texcoords
vt 0.814453 0.5
vt 0.845703 0.5
vt 0.876953 0.5
vt 0.908203 0.5
vt 0.939453 0.5
vt 0.970703 0.5

# verts
v -18 -18 0
v -18 18 0
v -18 -6 5
v -18 6 5
v -18 -12 6
v -18 -6 6
v -18 6 6
v -18 12 6
v -18 -18 12
v -18 -12 12
v -18 -6 12
v -18 6 12
v -18 12 12
v -18 18 12
v -18 -18 18
v -18 -12 18
v -18 -6 18
v -18 6 18
v -18 12 18
v -18 18 18
v -18 -12 24
v -18 -6 24
v -18 6 24
v -18 12 24
v -18 -18 30
v -18 18 30
v 12 -12 6
v 12 -6 6
v 12 6 6
v 12 12 6
v 12 -12 12
v 12 -6 12
v 12 6 12
v 12 12 12
v 12 -12 18
v 12 -6 18
v 12 6 18
v 12 12 18
v 12 -12 24
v 12 -6 24
v 12 6 24
v 12 12 24
v -12 -12 6
v -12 -6 6
v -12 6 6
v -12 12 6
v -12 -12 12
v -12 -6 12
v -12 6 12
v -12 12 12
v -12 -12 18
v -12 -6 18
v -12 6 18
v -12 12 18
v -12 -12 24
v -12 -6 24
v -12 6 24
v -12 12 24
v 18 -18 0
v 18 18 0
v 18 -6 5
v 18 6 5
v 18 -12 6
v 18 -6 6
v 18 6 6
v 18 12 6
v 18 -18 12
v 18 -12 12
v 18 -6 12
v 18 6 12
v 18 12 12
v 18 18 12
v 18 -18 18
v 18 -12 18
v 18 -6 18
v 18 6 18
v 18 12 18
v 18 18 18
v 18 -12 24
v 18 -6 24
v 18 6 24
v 18 12 24
v 18 -18 30
v 18 18 30
v -18 -18 0
v -18 -18 12
v -18 -18 18
v -18 -18 30
v 18 -18 0
v 18 -18 12
v 18 -18 18
v 18 -18 30
v -18 6 6
v -18 6 12
v -18 6 18
v -18 6 24
v -12 6 6
v -12 6 12
v -12 6 18
v -12 6 24
v 12 6 6
v 12 6 12
v 12 6 18
v 12 6 24
v 18 6 6
v 18 6 12
v 18 6 18
v 18 6 24
v -12 12 6
v -12 12 12
v -12 12 18
v -12 12 24
v 12 12 6
v 12 12 12
v 12 12 18
v 12 12 24
v -12 -12 6
v -12 -12 12
v -12 -12 18
v -12 -12 24
v 12 -12 6
v 12 -12 12
v 12 -12 18
v 12 -12 24
v -18 -6 6
v -18 -6 12
v -18 -6 18
v -18 -6 24
v -12 -6 6
v -12 -6 12
v -12 -6 18
v -12 -6 24
v 12 -6 6
v 12 -6 12
v 12 -6 18
v 12 -6 24
v 18 -6 6
v 18 -6 12
v 18 -6 18
v 18 -6 24
v -18 18 0
v -18 18 12
v -18 18 18
v -18 18 30
v 18 18 0
v 18 18 12
v 18 18 18
v 18 18 30
v -18 -18 0
v 18 -18 0
v -18 18 0
v 18 18 0
v -12 -12 24
v 12 -12 24
v -18 -6 24
v -12 -6 24
v 12 -6 24
v 18 -6 24
v -18 6 24
v -12 6 24
v 12 6 24
v 18 6 24
v -12 12 24
v 12 12 24
v -12 -12 6
v 12 -12 6
v -18 -6 6
v -12 -6 6
v -6 -6 6
v 6 -6 6
v 12 -6 6
v 18 -6 6
v -18 6 6
v -12 6 6
v -6 6 6
v 6 6 6
v 12 6 6
v 18 6 6
v -12 12 6
v 12 12 6
v -18 -18 30
v 18 -18 30
v -18 18 30
v 18 18 30

# faces
f 3/6/1 2/6/1 1/6/1
f 4/6/1 2/6/1 3/6/1
f 5/6/1 3/6/1 1/6/1
f 6/4/1 4/4/1 3/4/1
f 6/6/1 3/6/1 5/6/1
f 7/6/1 2/6/1 4/6/1
f 7/4/1 4/4/1 6/4/1
f 8/6/1 2/6/1 7/6/1
f 9/6/1 5/6/1 1/6/1
f 10/1/1 6/1/1 5/1/1
f 10/6/1 5/6/1 9/6/1
f 11/1/1 6/1/1 10/1/1
f 12/1/1 8/1/1 7/1/1
f 13/6/1 2/6/1 8/6/1
f 13/1/1 8/1/1 12/1/1
f 14/6/1 2/6/1 13/6/1
f 15/2/1 11/2/1 10/2/1
f 15/2/1 10/2/1 9/2/1
f 16/2/1 11/2/1 15/2/1
f 17/2/1 11/2/1 16/2/1
f 18/2/1 14/2/1 13/2/1
f 18/2/1 13/2/1 12/2/1
f 19/2/1 14/2/1 18/2/1
f 20/2/1 14/2/1 19/2/1
f 21/5/1 17/5/1 16/5/1
f 21/6/1 16/6/1 15/6/1
f 22/5/1 17/5/1 21/5/1
f 23/5/1 19/5/1 18/5/1
f 24/6/1 20/6/1 19/6/1
f 24/5/1 19/5/1 23/5/1
f 25/6/1 23/6/1 22/6/1
f 25/6/1 22/6/1 21/6/1
f 25/6/1 24/6/1 23/6/1
f 25/6/1 21/6/1 15/6/1
f 26/6/1 20/6/1 24/6/1
f 26/6/1 24/6/1 25/6/1
f 31/1/1 28/1/1 27/1/1
f 32/1/1 28/1/1 31/1/1
f 33/1/1 30/1/1 29/1/1
f 34/1/1 30/1/1 33/1/1
f 35/2/1 32/2/1 31/2/1
f 36/2/1 32/2/1 35/2/1
f 37/2/1 34/2/1 33/2/1
f 38/2/1 34/2/1 37/2/1
f 39/5/1 36/5/1 35/5/1
f 40/5/1 36/5/1 39/5/1
f 41/5/1 38/5/1 37/5/1
f 42/5/1 38/5/1 41/5/1
f 43/1/2 44/1/2 47/1/2
f 47/1/2 44/1/2 48/1/2
f 45/1/2 46/1/2 49/1/2
f 49/1/2 46/1/2 50/1/2
f 47/2/2 48/2/2 51/2/2
f 51/2/2 48/2/2 52/2/2
f 49/2/2 50/2/2 53/2/2
f 53/2/2 50/2/2 54/2/2
f 51/5/2 52/5/2 55/5/2
f 55/5/2 52/5/2 56/5/2
f 53/5/2 54/5/2 57/5/2
f 57/5/2 54/5/2 58/5/2
f 59/6/2 60/6/2 61/6/2
f 61/6/2 60/6/2 62/6/2
f 59/6/2 61/6/2 63/6/2
f 61/4/2 62/4/2 64/4/2
f 63/6/2 61/6/2 64/6/2
f 62/6/2 60/6/2 65/6/2
f 64/4/2 62/4/2 65/4/2
f 65/6/2 60/6/2 66/6/2
f 59/6/2 63/6/2 67/6/2
f 63/1/2 64/1/2 68/1/2
f 67/6/2 63/6/2 68/6/2
f 68/1/2 64/1/2 69/1/2
f 65/1/2 66/1/2 70/1/2
f 66/6/2 60/6/2 71/6/2
f 70/1/2 66/1/2 71/1/2
f 71/6/2 60/6/2 72/6/2
f 68/2/2 69/2/2 73/2/2
f 67/2/2 68/2/2 73/2/2
f 73/2/2 69/2/2 74/2/2
f 74/2/2 69/2/2 75/2/2
f 71/2/2 72/2/2 76/2/2
f 70/2/2 71/2/2 76/2/2
f 76/2/2 72/2/2 77/2/2
f 77/2/2 72/2/2 78/2/2
f 74/5/2 75/5/2 79/5/2
f 73/6/2 74/6/2 79/6/2
f 79/5/2 75/5/2 80/5/2
f 76/5/2 77/5/2 81/5/2
f 77/6/2 78/6/2 82/6/2
f 81/5/2 77/5/2 82/5/2
f 80/6/2 81/6/2 83/6/2
f 79/6/2 80/6/2 83/6/2
f 81/6/2 82/6/2 83/6/2
f 73/6/2 79/6/2 83/6/2
f 82/6/2 78/6/2 84/6/2
f 83/6/2 82/6/2 84/6/2
f 89/6/3 86/6/3 85/6/3
f 90/2/3 87/2/3 86/2/3
f 90/6/3 86/6/3 89/6/3
f 91/6/3 88/6/3 87/6/3
f 91/2/3 87/2/3 90/2/3
f 92/6/3 88/6/3 91/6/3
f 97/1/3 94/1/3 93/1/3
f 98/2/3 95/2/3 94/2/3
f 98/1/3 94/1/3 97/1/3
f 99/5/3 96/5/3 95/5/3
f 99/2/3 95/2/3 98/2/3
f 100/5/3 96/5/3 99/5/3
f 105/1/3 102/1/3 101/1/3
f 106/2/3 103/2/3 102/2/3
f 106/1/3 102/1/3 105/1/3
f 107/5/3 104/5/3 103/5/3
f 107/2/3 103/2/3 106/2/3
f 108/5/3 104/5/3 107/5/3
f 113/6/3 110/6/3 109/6/3
f 114/2/3 111/2/3 110/2/3
f 114/6/3 110/6/3 113/6/3
f 115/6/3 112/6/3 111/6/3
f 115/2/3 111/2/3 114/2/3
f 116/6/3 112/6/3 115/6/3
f 117/6/4 118/6/4 121/6/4
f 118/2/4 119/2/4 122/2/4
f 121/6/4 118/6/4 122/6/4
f 119/6/4 120/6/4 123/6/4
f 122/2/4 119/2/4 123/2/4
f 123/6/4 120/6/4 124/6/4
f 125/1/4 126/1/4 129/1/4
f 126/2/4 127/2/4 130/2/4
f 129/1/4 126/1/4 130/1/4
f 127/5/4 128/5/4 131/5/4
f 130/2/4 127/2/4 131/2/4
f 131/5/4 128/5/4 132/5/4
f 133/1/4 134/1/4 137/1/4
f 134/2/4 135/2/4 138/2/4
f 137/1/4 134/1/4 138/1/4
f 135/5/4 136/5/4 139/5/4
f 138/2/4 135/2/4 139/2/4
f 139/5/4 136/5/4 140/5/4
f 141/6/4 142/6/4 145/6/4
f 142/2/4 143/2/4 146/2/4
f 145/6/4 142/6/4 146/6/4
f 143/6/4 144/6/4 147/6/4
f 146/2/4 143/2/4 147/2/4
f 147/6/4 144/6/4 148/6/4
f 151/6/5 150/6/5 149/6/5
f 152/6/5 150/6/5 151/6/5
f 156/6/5 154/6/5 153/6/5
f 157/6/5 154/6/5 156/6/5
f 159/6/5 156/6/5 155/6/5
f 159/6/5 158/6/5 157/6/5
f 159/6/5 157/6/5 156/6/5
f 160/6/5 158/6/5 159/6/5
f 161/6/5 158/6/5 160/6/5
f 162/6/5 158/6/5 161/6/5
f 163/6/5 161/6/5 160/6/5
f 164/6/5 161/6/5 163/6/5
f 165/4/6 166/4/6 168/4/6
f 168/4/6 166/4/6 169/4/6
f 169/4/6 166/4/6 170/4/6
f 170/4/6 166/4/6 171/4/6
f 167/4/6 168/4/6 173/4/6
f 168/4/6 169/4/6 173/4/6
f 173/4/6 169/4/6 174/4/6
f 169/3/6 170/3/6 175/3/6
f 174/4/6 169/4/6 175/4/6
f 171/4/6 172/4/6 176/4/6
f 175/3/6 170/3/6 176/3/6
f 170/4/6 171/4/6 176/4/6
f 176/4/6 172/4/6 177/4/6
f 177/4/6 172/4/6 178/4/6
f 174/4/6 175/4/6 179/4/6
f 176/4/6 177/4/6 179/4/6
f 175/4/6 176/4/6 179/4/6
f 179/4/6 177/4/6 180/4/6
f 181/6/6 182/6/6 183/6/6
f 183/6/6 182/6/6 184/6/6
