# MagicaVoxel @ Ephtracy

# group
o 

# material
mtllib unionB_roof.mtl
usemtl palette

# normals
vn -1 0 0
vn 1 0 0
vn 0 0 1
vn 0 0 -1
vn 0 -1 0
vn 0 1 0

# texcoords
vt 0.0800781 0.5
vt 0.123047 0.5
vt 0.712891 0.5
vt 0.740234 0.5
vt 0.748047 0.5
vt 0.771484 0.5
vt 0.775391 0.5
vt 0.802734 0.5
vt 0.806641 0.5
vt 0.861328 0.5
vt 0.869141 0.5
vt 0.873047 0.5
vt 0.916016 0.5
vt 0.931641 0.5
vt 0.935547 0.5
vt 0.990234 0.5
vt 0.994141 0.5

# verts
v -6.6 -2.3 10.5
v -6.6 -2.3 9.9
v -6.6 -2.3 9.3
v -6.6 -2.3 -10.4
v -6.6 -2.3 -10.5
v -6.6 -1.7 10.5
v -6.6 -1.7 9.9
v -6.6 -1.7 9.3
v -6.6 -1.7 8.7
v -6.6 -1.7 7.5
v -6.6 -1.7 -10.4
v -6.6 -1.7 -10.5
v -6.6 0.1 8.7
v -6.6 0.1 7.5
v -6.6 0.2 8.7
v -6.6 0.2 7.5
v -6.6 2.5 10.5
v -6.6 2.5 -9.9
v -6.6 2.5 -10.5
v -6.6 3.1 10.5
v -6.6 3.1 -9.9
v -6.6 3.1 -10.5
v -2.4 -1.7 6.3
v -2.4 -1.7 -10.4
v -2.4 -1.7 -10.5
v -2.4 2.5 6.3
v -2.4 2.5 -10.4
v -2.4 2.5 -10.5
v -0.6 -1.7 3.9
v -0.6 -1.7 3.8
v -0.6 -1.7 3.4
v -0.6 -1.7 3.3
v -0.6 -1.4 3.8
v -0.6 -1.4 3.4
v -0.6 -0.9 3.9
v -0.6 -0.9 3.3
v -0.0999999 -1.7 3.9
v -0.0999999 -1.7 3.8
v -0.0999999 -1.7 3.4
v -0.0999999 -1.7 3.3
v -0.0999999 -1.4 3.9
v -0.0999999 -1.4 3.8
v -0.0999999 -1.4 3.4
v -0.0999999 -1.4 3.3
v 4.76837e-07 -1.7 -0.7
v 4.76837e-07 -1.7 -0.9
v 4.76837e-07 -0.7 5.7
v 4.76837e-07 -0.7 -0.7
v 4.76837e-07 -0.5 5.7
v 4.76837e-07 -0.5 -0.9
v 1.1 -1.7 5.7
v 1.1 -1.7 -0.7
v 1.1 -1.1 5.7
v 1.1 -1.1 -0.7
v 1.1 -0.7 5.7
v 1.1 -0.7 -0.7
v 4.2 -1.7 -0.9
v 4.2 -1.7 -1.1
v 4.2 -1.7 -1.9
v 4.2 -1.7 -2.1
v 4.2 -1.2 -0.9
v 4.2 -1.2 -1.1
v 4.2 -1.2 -1.9
v 4.2 -1.2 -2.1
v 4.2 -1.1 -0.9
v 4.2 -1.1 -2.1
v 6 -1.7 6.3
v 6 -1.7 5.7
v 6 0.1 6.3
v 6 0.1 5.7
v -6 -1.7 9.9
v -6 -1.7 8.7
v -6 -1.7 7.5
v -6 -1.7 -10.5
v -6 0.1 8.7
v -6 0.1 7.5
v -6 0.2 8.7
v -6 0.2 7.5
v -6 2.5 9.9
v -6 2.5 -10.5
v -1.8 -1.7 5.7
v -1.8 -1.7 -2.1
v -1.8 2.5 5.7
v -1.8 2.5 -2.1
v -0.5 -1.7 3.9
v -0.5 -1.7 3.8
v -0.5 -1.7 3.4
v -0.5 -1.7 3.3
v -0.5 -1.4 3.9
v -0.5 -1.4 3.8
v -0.5 -1.4 3.4
v -0.5 -1.4 3.3
v -0.5 -1.3 3.9
v -0.5 -1.3 3.3
v -0.5 -0.9 3.9
v -0.5 -0.9 3.3
v 4.76837e-07 -1.7 3.9
v 4.76837e-07 -1.7 3.8
v 4.76837e-07 -1.7 3.4
v 4.76837e-07 -1.7 3.3
v 4.76837e-07 -1.4 3.8
v 4.76837e-07 -1.4 3.4
v 4.76837e-07 -1.3 3.9
v 4.76837e-07 -1.3 3.3
v 1.2 -1.7 5.7
v 1.2 -1.7 -0.9
v 1.2 -1.1 5.7
v 1.2 -1.1 -0.9
v 1.2 -0.5 5.7
v 1.2 -0.5 -0.9
v 4.4 -1.7 -0.9
v 4.4 -1.7 -1.1
v 4.4 -1.7 -1.9
v 4.4 -1.7 -2.1
v 4.4 -1.2 -0.9
v 4.4 -1.2 -1.1
v 4.4 -1.2 -1.9
v 4.4 -1.2 -2.1
v 4.8 -1.7 6.3
v 4.8 -1.7 5.7
v 4.8 0.1 6.3
v 4.8 0.1 5.7
v 6.6 -2.3 10.5
v 6.6 -2.3 9.9
v 6.6 -2.3 9.3
v 6.6 -2.3 6.9
v 6.6 -2.3 6.3
v 6.6 -2.3 -10.4
v 6.6 -2.3 -10.5
v 6.6 -1.7 10.5
v 6.6 -1.7 9.9
v 6.6 -1.7 9.3
v 6.6 -1.7 6.9
v 6.6 -1.7 6.3
v 6.6 -1.7 5.7
v 6.6 -1.7 -2.1
v 6.6 -1.7 -10.4
v 6.6 -1.7 -10.5
v 6.6 -1.2 -0.9
v 6.6 -1.2 -2.1
v 6.6 -1.1 10.5
v 6.6 -1.1 9.9
v 6.6 -1.1 -0.9
v 6.6 -1.1 -2.1
v 6.6 2.5 10.5
v 6.6 2.5 9.9
v 6.6 2.5 6.3
v 6.6 2.5 5.7
v 6.6 2.5 -2.1
v 6.6 2.5 -2.7
v 6.6 2.5 -9.9
v 6.6 2.5 -10.4
v 6.6 2.5 -10.5
v 6.6 3.1 10.5
v 6.6 3.1 9.9
v 6.6 3.1 6.3
v 6.6 3.1 5.7
v 6.6 3.1 -2.1
v 6.6 3.1 -2.7
v 6.6 3.1 -9.9
v 6.6 3.1 -10.5
v -6.6 -2.3 10.5
v -6.6 -1.7 10.5
v -6.6 2.5 10.5
v -6.6 3.1 10.5
v -6 -2.3 10.5
v -6 -1.7 10.5
v -5.4 -2.3 10.5
v -5.4 -1.7 10.5
v 0.6 -1.7 10.5
v 0.6 -1.1 10.5
v 6 2.5 10.5
v 6 3.1 10.5
v 6.6 -2.3 10.5
v 6.6 -1.7 10.5
v 6.6 -1.1 10.5
v 6.6 2.5 10.5
v 6.6 3.1 10.5
v -6.6 -1.7 7.5
v -6.6 0.1 7.5
v -6 -1.7 7.5
v -6 0.1 7.5
v -2.4 -1.7 6.3
v -2.4 2.5 6.3
v 4.8 -1.7 6.3
v 4.8 0.1 6.3
v 4.8 0.2 6.3
v 6 -1.7 6.3
v 6 0.1 6.3
v 6 0.2 6.3
v 6.6 -1.7 6.3
v 6.6 2.5 6.3
v -0.6 -1.7 3.9
v -0.6 -0.9 3.9
v -0.5 -1.7 3.9
v -0.5 -1.4 3.9
v -0.5 -1.3 3.9
v -0.5 -0.9 3.9
v -0.0999999 -1.7 3.9
v -0.0999999 -1.4 3.9
v 4.76837e-07 -1.7 3.9
v 4.76837e-07 -1.3 3.9
v -0.6 -1.7 3.4
v -0.6 -1.4 3.4
v -0.5 -1.7 3.4
v -0.5 -1.4 3.4
v -0.0999999 -1.7 3.4
v -0.0999999 -1.4 3.4
v 4.76837e-07 -1.7 3.4
v 4.76837e-07 -1.4 3.4
v 4.76837e-07 -1.7 -0.7
v 4.76837e-07 -0.7 -0.7
v 0.6 -1.7 -0.7
v 0.6 -1.1 -0.7
v 1.1 -1.7 -0.7
v 1.1 -1.1 -0.7
v 1.1 -0.7 -0.7
v 4.2 -1.7 -0.9
v 4.2 -1.2 -0.9
v 4.2 -1.1 -0.9
v 4.4 -1.7 -0.9
v 4.4 -1.2 -0.9
v 6.6 -1.2 -0.9
v 6.6 -1.1 -0.9
v 4.2 -1.7 -1.9
v 4.2 -1.2 -1.9
v 4.4 -1.7 -1.9
v 4.4 -1.2 -1.9
v -1.8 -1.7 -2.1
v -1.8 2.5 -2.1
v 4.2 -1.7 -2.1
v 4.2 -1.2 -2.1
v 4.2 -1.1 -2.1
v 4.4 -1.7 -2.1
v 4.4 -1.2 -2.1
v 6.6 -1.7 -2.1
v 6.6 -1.2 -2.1
v 6.6 -1.1 -2.1
v 6.6 2.5 -2.1
v -6 -1.7 9.9
v -6 2.5 9.9
v 0.6 -1.7 9.9
v 0.6 -1.1 9.9
v 6.6 -1.7 9.9
v 6.6 -1.1 9.9
v 6.6 2.5 9.9
v -6.6 -1.7 8.7
v -6.6 0.1 8.7
v -6 -1.7 8.7
v -6 0.1 8.7
v -1.8 -1.7 5.7
v -1.8 2.5 5.7
v 4.76837e-07 -0.7 5.7
v 4.76837e-07 -0.5 5.7
v 1.1 -1.7 5.7
v 1.1 -1.1 5.7
v 1.1 -0.7 5.7
v 1.2 -1.7 5.7
v 1.2 -1.1 5.7
v 1.2 -0.5 5.7
v 4.8 -1.7 5.7
v 4.8 0.1 5.7
v 4.8 0.2 5.7
v 6 -1.7 5.7
v 6 0.1 5.7
v 6 0.2 5.7
v 6.6 -1.7 5.7
v 6.6 2.5 5.7
v -0.6 -1.7 3.8
v -0.6 -1.4 3.8
v -0.5 -1.7 3.8
v -0.5 -1.4 3.8
v -0.0999999 -1.7 3.8
v -0.0999999 -1.4 3.8
v 4.76837e-07 -1.7 3.8
v 4.76837e-07 -1.4 3.8
v -0.6 -1.7 3.3
v -0.6 -0.9 3.3
v -0.5 -1.7 3.3
v -0.5 -1.4 3.3
v -0.5 -1.3 3.3
v -0.5 -0.9 3.3
v -0.0999999 -1.7 3.3
v -0.0999999 -1.4 3.3
v 4.76837e-07 -1.7 3.3
v 4.76837e-07 -1.3 3.3
v 4.76837e-07 -1.7 -0.9
v 4.76837e-07 -0.5 -0.9
v 0.6 -1.7 -0.9
v 0.6 -1.1 -0.9
v 1.2 -1.7 -0.9
v 1.2 -1.1 -0.9
v 1.2 -0.5 -0.9
v 4.2 -1.7 -1.1
v 4.2 -1.2 -1.1
v 4.4 -1.7 -1.1
v 4.4 -1.2 -1.1
v -6.6 -2.3 -10.5
v -6.6 -1.7 -10.5
v -6.6 2.5 -10.5
v -6.6 3.1 -10.5
v -6 -2.3 -10.5
v -6 -1.7 -10.5
v -6 2.5 -10.5
v -6 3.1 -10.5
v -5.4 -2.3 -10.5
v -5.4 -1.7 -10.5
v -3 -2.3 -10.5
v -3 -1.7 -10.5
v -2.4 -2.3 -10.5
v -2.4 -1.7 -10.5
v -2.4 2.5 -10.5
v -2.4 3.1 -10.5
v -1.8 2.5 -10.5
v -1.8 3.1 -10.5
v 6 2.5 -10.5
v 6 3.1 -10.5
v 6.6 -2.3 -10.5
v 6.6 -1.7 -10.5
v 6.6 2.5 -10.5
v 6.6 3.1 -10.5
v -6.6 -2.3 10.5
v -6 -2.3 10.5
v -5.4 -2.3 10.5
v 6.6 -2.3 10.5
v -6.6 -2.3 9.9
v -6 -2.3 9.9
v -5.4 -2.3 9.9
v 6.6 -2.3 9.9
v -6.6 -2.3 9.3
v -6 -2.3 9.3
v -5.4 -2.3 9.3
v 6.6 -2.3 9.3
v -3 -2.3 6.9
v 6.6 -2.3 6.9
v -2.4 -2.3 6.3
v 6.6 -2.3 6.3
v -6.6 -2.3 -10.4
v -6 -2.3 -10.4
v -5.4 -2.3 -10.4
v -3 -2.3 -10.4
v -2.4 -2.3 -10.4
v 6.6 -2.3 -10.4
v -6.6 -2.3 -10.5
v -6 -2.3 -10.5
v -5.4 -2.3 -10.5
v -3 -2.3 -10.5
v -2.4 -2.3 -10.5
v 6.6 -2.3 -10.5
v -0.5 -1.4 3.9
v -0.0999999 -1.4 3.9
v -0.6 -1.4 3.8
v -0.5 -1.4 3.8
v -0.0999999 -1.4 3.8
v 4.76837e-07 -1.4 3.8
v -0.6 -1.4 3.4
v -0.5 -1.4 3.4
v -0.0999999 -1.4 3.4
v 4.76837e-07 -1.4 3.4
v -0.5 -1.4 3.3
v -0.0999999 -1.4 3.3
v 4.4 -1.2 -0.9
v 6.6 -1.2 -0.9
v 4.2 -1.2 -1.1
v 4.4 -1.2 -1.1
v 4.2 -1.2 -1.9
v 4.4 -1.2 -1.9
v 4.4 -1.2 -2.1
v 6.6 -1.2 -2.1
v 4.76837e-07 -0.7 5.7
v 1.1 -0.7 5.7
v 4.76837e-07 -0.7 -0.7
v 1.1 -0.7 -0.7
v -6.6 0.1 8.7
v -6 0.1 8.7
v -6.6 0.1 7.5
v -6 0.1 7.5
v 4.8 0.1 6.3
v 6 0.1 6.3
v 4.8 0.1 5.7
v 6 0.1 5.7
v -6 2.5 9.9
v 6.6 2.5 9.9
v -2.4 2.5 6.3
v 6.6 2.5 6.3
v -1.8 2.5 5.7
v 6.6 2.5 5.7
v -1.8 2.5 -2.1
v 6.6 2.5 -2.1
v -2.4 2.5 -10.4
v -6 2.5 -10.5
v -2.4 2.5 -10.5
v -6 -1.7 9.9
v 0.6 -1.7 9.9
v 6.6 -1.7 9.9
v -5.4 -1.7 9.3
v 6.6 -1.7 9.3
v -6.6 -1.7 8.7
v -6 -1.7 8.7
v -6.6 -1.7 7.5
v -6 -1.7 7.5
v -3 -1.7 6.9
v 6.6 -1.7 6.9
v -2.4 -1.7 6.3
v 4.8 -1.7 6.3
v 6 -1.7 6.3
v 6.6 -1.7 6.3
v -1.8 -1.7 5.7
v 1.1 -1.7 5.7
v 1.2 -1.7 5.7
v 4.8 -1.7 5.7
v 6 -1.7 5.7
v 6.6 -1.7 5.7
v -0.6 -1.7 3.9
v -0.5 -1.7 3.9
v -0.0999999 -1.7 3.9
v 4.76837e-07 -1.7 3.9
v -0.6 -1.7 3.8
v -0.5 -1.7 3.8
v -0.0999999 -1.7 3.8
v 4.76837e-07 -1.7 3.8
v -0.6 -1.7 3.4
v -0.5 -1.7 3.4
v -0.0999999 -1.7 3.4
v 4.76837e-07 -1.7 3.4
v -0.6 -1.7 3.3
v -0.5 -1.7 3.3
v -0.0999999 -1.7 3.3
v 4.76837e-07 -1.7 3.3
v 4.76837e-07 -1.7 -0.7
v 0.6 -1.7 -0.7
v 1.1 -1.7 -0.7
v 4.76837e-07 -1.7 -0.9
v 0.6 -1.7 -0.9
v 1.2 -1.7 -0.9
v 4.2 -1.7 -0.9
v 4.4 -1.7 -0.9
v 4.2 -1.7 -1.1
v 4.4 -1.7 -1.1
v 4.2 -1.7 -1.9
v 4.4 -1.7 -1.9
v -1.8 -1.7 -2.1
v 4.2 -1.7 -2.1
v 4.4 -1.7 -2.1
v 6.6 -1.7 -2.1
v -5.4 -1.7 -10.4
v -3 -1.7 -10.4
v -2.4 -1.7 -10.4
v -6 -1.7 -10.5
v -5.4 -1.7 -10.5
v -3 -1.7 -10.5
v -2.4 -1.7 -10.5
v -0.5 -1.3 3.9
v 4.76837e-07 -1.3 3.9
v -0.5 -1.3 3.3
v 4.76837e-07 -1.3 3.3
v 4.2 -1.1 -0.9
v 6.6 -1.1 -0.9
v 4.2 -1.1 -2.1
v 6.6 -1.1 -2.1
v -0.6 -0.9 3.9
v -0.5 -0.9 3.9
v -0.6 -0.9 3.3
v -0.5 -0.9 3.3
v 4.76837e-07 -0.5 5.7
v 1.2 -0.5 5.7
v 4.76837e-07 -0.5 -0.9
v 1.2 -0.5 -0.9
v -6.6 3.1 10.5
v 6 3.1 10.5
v 6.6 3.1 10.5
v -6 3.1 9.9
v 6 3.1 9.9
v 6.6 3.1 9.9
v -2.4 3.1 6.3
v 6 3.1 6.3
v 6.6 3.1 6.3
v -1.8 3.1 5.7
v 6 3.1 5.7
v 6.6 3.1 5.7
v -1.8 3.1 -2.1
v 6 3.1 -2.1
v 6.6 3.1 -2.1
v 6 3.1 -2.7
v 6.6 3.1 -2.7
v -6.6 3.1 -9.9
v -6 3.1 -9.9
v -2.4 3.1 -9.9
v -1.8 3.1 -9.9
v 6 3.1 -9.9
v 6.6 3.1 -9.9
v -6.6 3.1 -10.5
v -6 3.1 -10.5
v -2.4 3.1 -10.5
v -1.8 3.1 -10.5
v 6 3.1 -10.5
v 6.6 3.1 -10.5

# faces
f 6/16/1 2/16/1 1/16/1
f 7/6/1 3/6/1 2/6/1
f 7/16/1 2/16/1 6/16/1
f 8/16/1 4/16/1 3/16/1
f 8/6/1 3/6/1 7/6/1
f 9/16/1 4/16/1 8/16/1
f 10/16/1 4/16/1 9/16/1
f 11/17/1 5/17/1 4/17/1
f 11/16/1 4/16/1 10/16/1
f 12/17/1 5/17/1 11/17/1
f 13/14/1 7/14/1 6/14/1
f 13/14/1 8/14/1 7/14/1
f 13/14/1 9/14/1 8/14/1
f 14/14/1 12/14/1 11/14/1
f 14/14/1 11/14/1 10/14/1
f 15/14/1 13/14/1 6/14/1
f 15/12/1 14/12/1 13/12/1
f 16/14/1 12/14/1 14/14/1
f 16/12/1 14/12/1 15/12/1
f 17/14/1 15/14/1 6/14/1
f 17/14/1 16/14/1 15/14/1
f 18/14/1 12/14/1 16/14/1
f 18/14/1 16/14/1 17/14/1
f 19/14/1 12/14/1 18/14/1
f 20/11/1 18/11/1 17/11/1
f 21/1/1 19/1/1 18/1/1
f 21/11/1 18/11/1 20/11/1
f 22/1/1 19/1/1 21/1/1
f 26/14/1 24/14/1 23/14/1
f 27/13/1 25/13/1 24/13/1
f 27/14/1 24/14/1 26/14/1
f 28/13/1 25/13/1 27/13/1
f 33/3/1 30/3/1 29/3/1
f 34/3/1 32/3/1 31/3/1
f 35/3/1 33/3/1 29/3/1
f 35/3/1 34/3/1 33/3/1
f 36/3/1 32/3/1 34/3/1
f 36/3/1 34/3/1 35/3/1
f 41/3/1 38/3/1 37/3/1
f 42/3/1 38/3/1 41/3/1
f 43/3/1 40/3/1 39/3/1
f 44/3/1 40/3/1 43/3/1
f 48/9/1 46/9/1 45/9/1
f 49/9/1 48/9/1 47/9/1
f 50/9/1 46/9/1 48/9/1
f 50/9/1 48/9/1 49/9/1
f 53/8/1 52/8/1 51/8/1
f 54/8/1 52/8/1 53/8/1
f 55/9/1 54/9/1 53/9/1
f 56/9/1 54/9/1 55/9/1
f 61/4/1 58/4/1 57/4/1
f 62/4/1 58/4/1 61/4/1
f 63/4/1 60/4/1 59/4/1
f 64/4/1 60/4/1 63/4/1
f 65/5/1 62/5/1 61/5/1
f 65/5/1 63/5/1 62/5/1
f 65/5/1 64/5/1 63/5/1
f 66/5/1 64/5/1 65/5/1
f 69/14/1 68/14/1 67/14/1
f 70/14/1 68/14/1 69/14/1
f 71/14/2 72/14/2 75/14/2
f 73/14/2 74/14/2 76/14/2
f 71/14/2 75/14/2 77/14/2
f 75/12/2 76/12/2 77/12/2
f 76/14/2 74/14/2 78/14/2
f 77/12/2 76/12/2 78/12/2
f 71/14/2 77/14/2 79/14/2
f 77/14/2 78/14/2 79/14/2
f 78/14/2 74/14/2 80/14/2
f 79/14/2 78/14/2 80/14/2
f 81/14/2 82/14/2 83/14/2
f 83/14/2 82/14/2 84/14/2
f 85/3/2 86/3/2 89/3/2
f 89/3/2 86/3/2 90/3/2
f 87/3/2 88/3/2 91/3/2
f 91/3/2 88/3/2 92/3/2
f 93/3/2 94/3/2 95/3/2
f 95/3/2 94/3/2 96/3/2
f 97/3/2 98/3/2 101/3/2
f 99/3/2 100/3/2 102/3/2
f 97/3/2 101/3/2 103/3/2
f 101/3/2 102/3/2 103/3/2
f 102/3/2 100/3/2 104/3/2
f 103/3/2 102/3/2 104/3/2
f 105/8/2 106/8/2 107/8/2
f 107/8/2 106/8/2 108/8/2
f 107/9/2 108/9/2 109/9/2
f 109/9/2 108/9/2 110/9/2
f 111/4/2 112/4/2 115/4/2
f 115/4/2 112/4/2 116/4/2
f 113/4/2 114/4/2 117/4/2
f 117/4/2 114/4/2 118/4/2
f 119/14/2 120/14/2 121/14/2
f 121/14/2 120/14/2 122/14/2
f 123/16/2 124/16/2 130/16/2
f 124/6/2 125/6/2 131/6/2
f 130/16/2 124/16/2 131/16/2
f 125/16/2 126/16/2 132/16/2
f 131/6/2 125/6/2 132/6/2
f 126/7/2 127/7/2 133/7/2
f 132/16/2 126/16/2 133/16/2
f 127/16/2 128/16/2 134/16/2
f 133/7/2 127/7/2 134/7/2
f 134/16/2 128/16/2 135/16/2
f 135/16/2 128/16/2 136/16/2
f 128/17/2 129/17/2 137/17/2
f 136/16/2 128/16/2 137/16/2
f 137/17/2 129/17/2 138/17/2
f 136/14/2 137/14/2 140/14/2
f 130/15/2 131/15/2 141/15/2
f 141/15/2 131/15/2 142/15/2
f 139/5/2 140/5/2 143/5/2
f 140/14/2 137/14/2 144/14/2
f 143/5/2 140/5/2 144/5/2
f 141/14/2 142/14/2 145/14/2
f 145/14/2 142/14/2 146/14/2
f 134/14/2 135/14/2 147/14/2
f 147/14/2 135/14/2 148/14/2
f 144/14/2 137/14/2 149/14/2
f 149/14/2 137/14/2 150/14/2
f 150/14/2 137/14/2 151/14/2
f 137/13/2 138/13/2 152/13/2
f 151/14/2 137/14/2 152/14/2
f 152/13/2 138/13/2 153/13/2
f 145/2/2 146/2/2 154/2/2
f 146/10/2 147/10/2 155/10/2
f 154/2/2 146/2/2 155/2/2
f 147/2/2 148/2/2 156/2/2
f 155/10/2 147/10/2 156/10/2
f 148/10/2 149/10/2 157/10/2
f 156/2/2 148/2/2 157/2/2
f 149/2/2 150/2/2 158/2/2
f 157/10/2 149/10/2 158/10/2
f 150/11/2 151/11/2 159/11/2
f 158/2/2 150/2/2 159/2/2
f 151/1/2 152/1/2 160/1/2
f 159/11/2 151/11/2 160/11/2
f 152/1/2 153/1/2 160/1/2
f 160/1/2 153/1/2 161/1/2
f 166/16/3 163/16/3 162/16/3
f 167/14/3 164/14/3 163/14/3
f 167/16/3 163/16/3 166/16/3
f 168/6/3 167/6/3 166/6/3
f 169/14/3 164/14/3 167/14/3
f 169/6/3 167/6/3 168/6/3
f 170/16/3 169/16/3 168/16/3
f 170/14/3 164/14/3 169/14/3
f 171/14/3 164/14/3 170/14/3
f 172/11/3 165/11/3 164/11/3
f 172/14/3 164/14/3 171/14/3
f 173/11/3 165/11/3 172/11/3
f 174/16/3 170/16/3 168/16/3
f 175/15/3 171/15/3 170/15/3
f 175/16/3 170/16/3 174/16/3
f 176/14/3 172/14/3 171/14/3
f 176/15/3 171/15/3 175/15/3
f 177/2/3 173/2/3 172/2/3
f 177/14/3 172/14/3 176/14/3
f 178/2/3 173/2/3 177/2/3
f 181/14/3 180/14/3 179/14/3
f 182/14/3 180/14/3 181/14/3
f 185/14/3 184/14/3 183/14/3
f 186/14/3 184/14/3 185/14/3
f 187/14/3 184/14/3 186/14/3
f 189/12/3 187/12/3 186/12/3
f 190/14/3 184/14/3 187/14/3
f 190/12/3 187/12/3 189/12/3
f 191/14/3 189/14/3 188/14/3
f 191/14/3 190/14/3 189/14/3
f 192/14/3 184/14/3 190/14/3
f 192/14/3 190/14/3 191/14/3
f 195/3/3 194/3/3 193/3/3
f 196/3/3 194/3/3 195/3/3
f 197/3/3 194/3/3 196/3/3
f 198/3/3 194/3/3 197/3/3
f 200/3/3 197/3/3 196/3/3
f 201/3/3 200/3/3 199/3/3
f 202/3/3 197/3/3 200/3/3
f 202/3/3 200/3/3 201/3/3
f 205/3/3 204/3/3 203/3/3
f 206/3/3 204/3/3 205/3/3
f 209/3/3 208/3/3 207/3/3
f 210/3/3 208/3/3 209/3/3
f 213/9/3 212/9/3 211/9/3
f 214/9/3 212/9/3 213/9/3
f 215/8/3 214/8/3 213/8/3
f 216/9/3 212/9/3 214/9/3
f 216/8/3 214/8/3 215/8/3
f 217/9/3 212/9/3 216/9/3
f 221/4/3 219/4/3 218/4/3
f 222/5/3 220/5/3 219/5/3
f 222/4/3 219/4/3 221/4/3
f 223/5/3 220/5/3 222/5/3
f 224/5/3 220/5/3 223/5/3
f 227/4/3 226/4/3 225/4/3
f 228/4/3 226/4/3 227/4/3
f 231/14/3 230/14/3 229/14/3
f 232/14/3 230/14/3 231/14/3
f 233/14/3 230/14/3 232/14/3
f 236/14/3 235/14/3 234/14/3
f 237/14/3 235/14/3 236/14/3
f 238/14/3 230/14/3 233/14/3
f 239/14/3 230/14/3 238/14/3
f 240/14/4 241/14/4 242/14/4
f 242/14/4 241/14/4 243/14/4
f 242/15/4 243/15/4 244/15/4
f 243/14/4 241/14/4 245/14/4
f 244/15/4 243/15/4 245/15/4
f 245/14/4 241/14/4 246/14/4
f 247/14/4 248/14/4 249/14/4
f 249/14/4 248/14/4 250/14/4
f 251/14/4 252/14/4 253/14/4
f 253/14/4 252/14/4 254/14/4
f 251/14/4 253/14/4 255/14/4
f 255/14/4 253/14/4 256/14/4
f 256/14/4 253/14/4 257/14/4
f 254/14/4 252/14/4 260/14/4
f 258/14/4 259/14/4 261/14/4
f 259/14/4 260/14/4 261/14/4
f 260/14/4 252/14/4 262/14/4
f 261/14/4 260/14/4 262/14/4
f 262/14/4 252/14/4 263/14/4
f 262/12/4 263/12/4 265/12/4
f 263/14/4 252/14/4 266/14/4
f 265/12/4 263/12/4 266/12/4
f 264/14/4 265/14/4 267/14/4
f 265/14/4 266/14/4 267/14/4
f 266/14/4 252/14/4 268/14/4
f 267/14/4 266/14/4 268/14/4
f 269/3/4 270/3/4 271/3/4
f 271/3/4 270/3/4 272/3/4
f 273/3/4 274/3/4 275/3/4
f 275/3/4 274/3/4 276/3/4
f 277/3/4 278/3/4 279/3/4
f 279/3/4 278/3/4 280/3/4
f 280/3/4 278/3/4 281/3/4
f 281/3/4 278/3/4 282/3/4
f 280/3/4 281/3/4 284/3/4
f 283/3/4 284/3/4 285/3/4
f 284/3/4 281/3/4 286/3/4
f 285/3/4 284/3/4 286/3/4
f 287/9/4 288/9/4 289/9/4
f 289/9/4 288/9/4 290/9/4
f 289/8/4 290/8/4 291/8/4
f 290/9/4 288/9/4 292/9/4
f 291/8/4 290/8/4 292/8/4
f 292/9/4 288/9/4 293/9/4
f 294/4/4 295/4/4 296/4/4
f 296/4/4 295/4/4 297/4/4
f 298/17/4 299/17/4 302/17/4
f 299/14/4 300/14/4 303/14/4
f 302/17/4 299/17/4 303/17/4
f 300/1/4 301/1/4 304/1/4
f 303/14/4 300/14/4 304/14/4
f 304/1/4 301/1/4 305/1/4
f 302/6/4 303/6/4 306/6/4
f 306/6/4 303/6/4 307/6/4
f 306/17/4 307/17/4 308/17/4
f 308/17/4 307/17/4 309/17/4
f 308/7/4 309/7/4 310/7/4
f 310/7/4 309/7/4 311/7/4
f 304/10/4 305/10/4 312/10/4
f 312/10/4 305/10/4 313/10/4
f 311/13/4 312/13/4 314/13/4
f 312/1/4 313/1/4 314/1/4
f 314/1/4 313/1/4 315/1/4
f 311/13/4 314/13/4 316/13/4
f 314/11/4 315/11/4 316/11/4
f 316/11/4 315/11/4 317/11/4
f 310/17/4 311/17/4 318/17/4
f 311/13/4 316/13/4 319/13/4
f 318/17/4 311/17/4 319/17/4
f 316/1/4 317/1/4 320/1/4
f 319/13/4 316/13/4 320/13/4
f 320/1/4 317/1/4 321/1/4
f 326/16/5 323/16/5 322/16/5
f 327/6/5 324/6/5 323/6/5
f 327/16/5 323/16/5 326/16/5
f 328/16/5 325/16/5 324/16/5
f 328/6/5 324/6/5 327/6/5
f 329/16/5 325/16/5 328/16/5
f 330/6/5 327/6/5 326/6/5
f 330/6/5 328/6/5 327/6/5
f 330/6/5 329/6/5 328/6/5
f 331/6/5 329/6/5 330/6/5
f 332/6/5 329/6/5 331/6/5
f 333/6/5 329/6/5 332/6/5
f 334/16/5 333/16/5 332/16/5
f 335/16/5 333/16/5 334/16/5
f 336/7/5 335/7/5 334/7/5
f 337/7/5 335/7/5 336/7/5
f 338/16/5 331/16/5 330/16/5
f 339/6/5 332/6/5 331/6/5
f 339/16/5 331/16/5 338/16/5
f 340/16/5 334/16/5 332/16/5
f 340/6/5 332/6/5 339/6/5
f 341/7/5 336/7/5 334/7/5
f 341/16/5 334/16/5 340/16/5
f 342/16/5 337/16/5 336/16/5
f 342/7/5 336/7/5 341/7/5
f 343/16/5 337/16/5 342/16/5
f 344/17/5 339/17/5 338/17/5
f 345/6/5 340/6/5 339/6/5
f 345/17/5 339/17/5 344/17/5
f 346/17/5 341/17/5 340/17/5
f 346/6/5 340/6/5 345/6/5
f 347/7/5 342/7/5 341/7/5
f 347/17/5 341/17/5 346/17/5
f 348/17/5 343/17/5 342/17/5
f 348/7/5 342/7/5 347/7/5
f 349/17/5 343/17/5 348/17/5
f 353/3/5 351/3/5 350/3/5
f 354/3/5 351/3/5 353/3/5
f 356/3/5 353/3/5 352/3/5
f 356/3/5 355/3/5 354/3/5
f 356/3/5 354/3/5 353/3/5
f 357/3/5 355/3/5 356/3/5
f 358/3/5 355/3/5 357/3/5
f 359/3/5 355/3/5 358/3/5
f 360/3/5 358/3/5 357/3/5
f 361/3/5 358/3/5 360/3/5
f 365/5/5 363/5/5 362/5/5
f 366/5/5 365/5/5 364/5/5
f 367/5/5 363/5/5 365/5/5
f 367/5/5 365/5/5 366/5/5
f 368/5/5 363/5/5 367/5/5
f 369/5/5 363/5/5 368/5/5
f 372/9/5 371/9/5 370/9/5
f 373/9/5 371/9/5 372/9/5
f 376/12/5 375/12/5 374/12/5
f 377/12/5 375/12/5 376/12/5
f 380/12/5 379/12/5 378/12/5
f 381/12/5 379/12/5 380/12/5
f 384/10/5 383/10/5 382/10/5
f 385/10/5 383/10/5 384/10/5
f 388/10/5 387/10/5 386/10/5
f 389/10/5 387/10/5 388/10/5
f 390/10/5 384/10/5 382/10/5
f 391/10/5 390/10/5 382/10/5
f 392/10/5 390/10/5 391/10/5
f 393/6/6 394/6/6 396/6/6
f 394/6/6 395/6/6 396/6/6
f 396/6/6 395/6/6 397/6/6
f 393/6/6 396/6/6 399/6/6
f 398/16/6 399/16/6 400/16/6
f 399/6/6 396/6/6 401/6/6
f 400/16/6 399/16/6 401/16/6
f 396/16/6 397/16/6 402/16/6
f 402/16/6 397/16/6 403/16/6
f 402/7/6 403/7/6 404/7/6
f 404/7/6 403/7/6 405/7/6
f 405/7/6 403/7/6 406/7/6
f 406/7/6 403/7/6 407/7/6
f 405/16/6 406/16/6 411/16/6
f 411/16/6 406/16/6 412/16/6
f 408/16/6 409/16/6 414/16/6
f 414/16/6 409/16/6 415/16/6
f 415/16/6 409/16/6 416/16/6
f 416/16/6 409/16/6 417/16/6
f 408/16/6 414/16/6 418/16/6
f 415/16/6 416/16/6 419/16/6
f 419/16/6 416/16/6 420/16/6
f 417/16/6 409/16/6 421/16/6
f 419/16/6 420/16/6 422/16/6
f 420/16/6 421/16/6 422/16/6
f 408/16/6 418/16/6 422/16/6
f 418/16/6 419/16/6 422/16/6
f 422/16/6 421/16/6 423/16/6
f 423/16/6 421/16/6 424/16/6
f 421/16/6 409/16/6 425/16/6
f 424/16/6 421/16/6 425/16/6
f 408/16/6 422/16/6 426/16/6
f 423/16/6 424/16/6 427/16/6
f 427/16/6 424/16/6 428/16/6
f 425/16/6 409/16/6 429/16/6
f 427/16/6 428/16/6 430/16/6
f 428/16/6 429/16/6 430/16/6
f 429/16/6 409/16/6 430/16/6
f 426/16/6 427/16/6 430/16/6
f 430/16/6 409/16/6 431/16/6
f 431/16/6 409/16/6 432/16/6
f 426/16/6 430/16/6 433/16/6
f 412/16/6 413/16/6 435/16/6
f 410/16/6 411/16/6 435/16/6
f 411/16/6 412/16/6 435/16/6
f 435/16/6 413/16/6 436/16/6
f 436/16/6 413/16/6 437/16/6
f 433/16/6 434/16/6 438/16/6
f 434/16/6 435/16/6 438/16/6
f 435/16/6 436/16/6 438/16/6
f 437/16/6 413/16/6 439/16/6
f 433/16/6 438/16/6 440/16/6
f 438/16/6 439/16/6 440/16/6
f 439/16/6 413/16/6 441/16/6
f 440/16/6 439/16/6 441/16/6
f 433/16/6 440/16/6 442/16/6
f 426/16/6 433/16/6 442/16/6
f 408/16/6 426/16/6 442/16/6
f 442/16/6 440/16/6 443/16/6
f 441/16/6 413/16/6 444/16/6
f 444/16/6 413/16/6 445/16/6
f 401/6/6 396/6/6 446/6/6
f 396/16/6 402/16/6 446/16/6
f 402/7/6 404/7/6 447/7/6
f 446/16/6 402/16/6 447/16/6
f 447/7/6 404/7/6 448/7/6
f 401/6/6 446/6/6 449/6/6
f 446/17/6 447/17/6 450/17/6
f 449/6/6 446/6/6 450/6/6
f 447/7/6 448/7/6 451/7/6
f 450/17/6 447/17/6 451/17/6
f 451/7/6 448/7/6 452/7/6
f 453/3/6 454/3/6 455/3/6
f 455/3/6 454/3/6 456/3/6
f 457/5/6 458/5/6 459/5/6
f 459/5/6 458/5/6 460/5/6
f 461/3/6 462/3/6 463/3/6
f 463/3/6 462/3/6 464/3/6
f 465/9/6 466/9/6 467/9/6
f 467/9/6 466/9/6 468/9/6
f 469/11/6 470/11/6 472/11/6
f 470/2/6 471/2/6 473/2/6
f 472/11/6 470/11/6 473/11/6
f 473/2/6 471/2/6 474/2/6
f 472/10/6 473/10/6 475/10/6
f 473/10/6 474/10/6 475/10/6
f 475/10/6 474/10/6 476/10/6
f 476/10/6 474/10/6 477/10/6
f 475/11/6 476/11/6 478/11/6
f 476/2/6 477/2/6 479/2/6
f 478/11/6 476/11/6 479/11/6
f 479/2/6 477/2/6 480/2/6
f 475/11/6 478/11/6 481/11/6
f 478/10/6 479/10/6 481/10/6
f 479/10/6 480/10/6 481/10/6
f 481/10/6 480/10/6 482/10/6
f 482/10/6 480/10/6 483/10/6
f 481/11/6 482/11/6 484/11/6
f 482/2/6 483/2/6 484/2/6
f 484/2/6 483/2/6 485/2/6
f 469/11/6 472/11/6 486/11/6
f 472/10/6 475/10/6 487/10/6
f 486/11/6 472/11/6 487/11/6
f 475/11/6 481/11/6 488/11/6
f 487/10/6 475/10/6 488/10/6
f 481/11/6 484/11/6 488/11/6
f 484/11/6 485/11/6 488/11/6
f 488/11/6 485/11/6 489/11/6
f 489/11/6 485/11/6 490/11/6
f 490/11/6 485/11/6 491/11/6
f 486/1/6 487/1/6 492/1/6
f 487/10/6 488/10/6 493/10/6
f 492/1/6 487/1/6 493/1/6
f 488/1/6 489/1/6 494/1/6
f 493/10/6 488/10/6 494/10/6
f 489/11/6 490/11/6 495/11/6
f 494/1/6 489/1/6 495/1/6
f 490/1/6 491/1/6 496/1/6
f 495/11/6 490/11/6 496/11/6
f 496/1/6 491/1/6 497/1/6
