# MagicaVoxel @ Ephtracy

# group
o 

# material
mtllib 12voxCube.mtl
usemtl palette

# normals
vn -1 0 0
vn 1 0 0
vn 0 0 1
vn 0 0 -1
vn 0 -1 0
vn 0 1 0

# texcoords
vt 0.845703 0.5
vt 0.876953 0.5
vt 0.908203 0.5
vt 0.939453 0.5
vt 0.970703 0.5

# verts
v -0.6 0 0.6
v -0.6 0 -0.6
v -0.6 0.1 0.6
v -0.6 0.1 0.5
v -0.6 0.2 0.5
v -0.6 0.2 0.4
v -0.6 0.3 0.4
v -0.6 0.3 0.3
v -0.6 0.4 0.3
v -0.6 0.4 0.2
v -0.6 0.5 0.2
v -0.6 0.5 0.1
v -0.6 0.6 0.1
v -0.6 0.6 5.96046e-08
v -0.6 0.7 5.96046e-08
v -0.6 0.7 -0.1
v -0.6 0.8 -0.1
v -0.6 0.8 -0.2
v -0.6 0.9 -0.2
v -0.6 0.9 -0.3
v -0.6 1 -0.3
v -0.6 1 -0.4
v -0.6 1.1 -0.4
v -0.6 1.1 -0.5
v -0.6 1.2 -0.5
v -0.6 1.2 -0.6
v 0.6 0 0.6
v 0.6 0 -0.6
v 0.6 0.1 0.6
v 0.6 0.1 0.5
v 0.6 0.2 0.5
v 0.6 0.2 0.4
v 0.6 0.3 0.4
v 0.6 0.3 0.3
v 0.6 0.4 0.3
v 0.6 0.4 0.2
v 0.6 0.5 0.2
v 0.6 0.5 0.1
v 0.6 0.6 0.1
v 0.6 0.6 5.96046e-08
v 0.6 0.7 5.96046e-08
v 0.6 0.7 -0.1
v 0.6 0.8 -0.1
v 0.6 0.8 -0.2
v 0.6 0.9 -0.2
v 0.6 0.9 -0.3
v 0.6 1 -0.3
v 0.6 1 -0.4
v 0.6 1.1 -0.4
v 0.6 1.1 -0.5
v 0.6 1.2 -0.5
v 0.6 1.2 -0.6
v -0.6 0 0.6
v -0.6 0.1 0.6
v -0.5 0 0.6
v -0.5 0.1 0.6
v 0.5 0 0.6
v 0.5 0.1 0.6
v 0.6 0 0.6
v 0.6 0.1 0.6
v -0.6 0.1 0.5
v -0.6 0.2 0.5
v -0.5 0.1 0.5
v -0.5 0.2 0.5
v 0.5 0.1 0.5
v 0.5 0.2 0.5
v 0.6 0.1 0.5
v 0.6 0.2 0.5
v -0.6 0.2 0.4
v -0.6 0.3 0.4
v -0.5 0.2 0.4
v -0.5 0.3 0.4
v 0.5 0.2 0.4
v 0.5 0.3 0.4
v 0.6 0.2 0.4
v 0.6 0.3 0.4
v -0.6 0.3 0.3
v -0.6 0.4 0.3
v -0.5 0.3 0.3
v -0.5 0.4 0.3
v 0.5 0.3 0.3
v 0.5 0.4 0.3
v 0.6 0.3 0.3
v 0.6 0.4 0.3
v -0.6 0.4 0.2
v -0.6 0.5 0.2
v -0.5 0.4 0.2
v -0.5 0.5 0.2
v 0.5 0.4 0.2
v 0.5 0.5 0.2
v 0.6 0.4 0.2
v 0.6 0.5 0.2
v -0.6 0.5 0.1
v -0.6 0.6 0.1
v -0.5 0.5 0.1
v -0.5 0.6 0.1
v 0.5 0.5 0.1
v 0.5 0.6 0.1
v 0.6 0.5 0.1
v 0.6 0.6 0.1
v -0.6 0.6 5.96046e-08
v -0.6 0.7 5.96046e-08
v -0.5 0.6 5.96046e-08
v -0.5 0.7 5.96046e-08
v 0.5 0.6 5.96046e-08
v 0.5 0.7 5.96046e-08
v 0.6 0.6 5.96046e-08
v 0.6 0.7 5.96046e-08
v -0.6 0.7 -0.1
v -0.6 0.8 -0.1
v -0.5 0.7 -0.1
v -0.5 0.8 -0.1
v 0.5 0.7 -0.1
v 0.5 0.8 -0.1
v 0.6 0.7 -0.1
v 0.6 0.8 -0.1
v -0.6 0.8 -0.2
v -0.6 0.9 -0.2
v -0.5 0.8 -0.2
v -0.5 0.9 -0.2
v 0.5 0.8 -0.2
v 0.5 0.9 -0.2
v 0.6 0.8 -0.2
v 0.6 0.9 -0.2
v -0.6 0.9 -0.3
v -0.6 1 -0.3
v -0.5 0.9 -0.3
v -0.5 1 -0.3
v 0.5 0.9 -0.3
v 0.5 1 -0.3
v 0.6 0.9 -0.3
v 0.6 1 -0.3
v -0.6 1 -0.4
v -0.6 1.1 -0.4
v -0.5 1 -0.4
v -0.5 1.1 -0.4
v 0.5 1 -0.4
v 0.5 1.1 -0.4
v 0.6 1 -0.4
v 0.6 1.1 -0.4
v -0.6 1.1 -0.5
v -0.6 1.2 -0.5
v -0.5 1.1 -0.5
v -0.5 1.2 -0.5
v 0.5 1.1 -0.5
v 0.5 1.2 -0.5
v 0.6 1.1 -0.5
v 0.6 1.2 -0.5
v -0.6 0 -0.6
v -0.6 1.2 -0.6
v -0.5 0 -0.6
v -0.5 1.2 -0.6
v 0.5 0 -0.6
v 0.5 1.2 -0.6
v 0.6 0 -0.6
v 0.6 1.2 -0.6
v -0.6 0 0.6
v -0.5 0 0.6
v 0.5 0 0.6
v 0.6 0 0.6
v -0.5 0 -0.5
v 0.5 0 -0.5
v -0.6 0 -0.6
v -0.5 0 -0.6
v 0.5 0 -0.6
v 0.6 0 -0.6
v -0.6 0.1 0.6
v -0.5 0.1 0.6
v 0.5 0.1 0.6
v 0.6 0.1 0.6
v -0.6 0.1 0.5
v -0.5 0.1 0.5
v 0.5 0.1 0.5
v 0.6 0.1 0.5
v -0.6 0.2 0.5
v -0.5 0.2 0.5
v 0.5 0.2 0.5
v 0.6 0.2 0.5
v -0.6 0.2 0.4
v -0.5 0.2 0.4
v 0.5 0.2 0.4
v 0.6 0.2 0.4
v -0.6 0.3 0.4
v -0.5 0.3 0.4
v 0.5 0.3 0.4
v 0.6 0.3 0.4
v -0.6 0.3 0.3
v -0.5 0.3 0.3
v 0.5 0.3 0.3
v 0.6 0.3 0.3
v -0.6 0.4 0.3
v -0.5 0.4 0.3
v 0.5 0.4 0.3
v 0.6 0.4 0.3
v -0.6 0.4 0.2
v -0.5 0.4 0.2
v 0.5 0.4 0.2
v 0.6 0.4 0.2
v -0.6 0.5 0.2
v -0.5 0.5 0.2
v 0.5 0.5 0.2
v 0.6 0.5 0.2
v -0.6 0.5 0.1
v -0.5 0.5 0.1
v 0.5 0.5 0.1
v 0.6 0.5 0.1
v -0.6 0.6 0.1
v -0.5 0.6 0.1
v 0.5 0.6 0.1
v 0.6 0.6 0.1
v -0.6 0.6 5.96046e-08
v -0.5 0.6 5.96046e-08
v 0.5 0.6 5.96046e-08
v 0.6 0.6 5.96046e-08
v -0.6 0.7 5.96046e-08
v -0.5 0.7 5.96046e-08
v 0.5 0.7 5.96046e-08
v 0.6 0.7 5.96046e-08
v -0.6 0.7 -0.1
v -0.5 0.7 -0.1
v 0.5 0.7 -0.1
v 0.6 0.7 -0.1
v -0.6 0.8 -0.1
v -0.5 0.8 -0.1
v 0.5 0.8 -0.1
v 0.6 0.8 -0.1
v -0.6 0.8 -0.2
v -0.5 0.8 -0.2
v 0.5 0.8 -0.2
v 0.6 0.8 -0.2
v -0.6 0.9 -0.2
v -0.5 0.9 -0.2
v 0.5 0.9 -0.2
v 0.6 0.9 -0.2
v -0.6 0.9 -0.3
v -0.5 0.9 -0.3
v 0.5 0.9 -0.3
v 0.6 0.9 -0.3
v -0.6 1 -0.3
v -0.5 1 -0.3
v 0.5 1 -0.3
v 0.6 1 -0.3
v -0.6 1 -0.4
v -0.5 1 -0.4
v 0.5 1 -0.4
v 0.6 1 -0.4
v -0.6 1.1 -0.4
v -0.5 1.1 -0.4
v 0.5 1.1 -0.4
v 0.6 1.1 -0.4
v -0.6 1.1 -0.5
v -0.5 1.1 -0.5
v 0.5 1.1 -0.5
v 0.6 1.1 -0.5
v -0.6 1.2 -0.5
v -0.5 1.2 -0.5
v 0.5 1.2 -0.5
v 0.6 1.2 -0.5
v -0.6 1.2 -0.6
v -0.5 1.2 -0.6
v 0.5 1.2 -0.6
v 0.6 1.2 -0.6

# faces
f 3/3/1 2/3/1 1/3/1
f 4/3/1 2/3/1 3/3/1
f 5/3/1 2/3/1 4/3/1
f 6/3/1 2/3/1 5/3/1
f 7/3/1 2/3/1 6/3/1
f 8/3/1 2/3/1 7/3/1
f 9/3/1 2/3/1 8/3/1
f 10/3/1 2/3/1 9/3/1
f 11/3/1 2/3/1 10/3/1
f 12/3/1 2/3/1 11/3/1
f 13/3/1 2/3/1 12/3/1
f 14/3/1 2/3/1 13/3/1
f 15/3/1 2/3/1 14/3/1
f 16/3/1 2/3/1 15/3/1
f 17/3/1 2/3/1 16/3/1
f 18/3/1 2/3/1 17/3/1
f 19/3/1 2/3/1 18/3/1
f 20/3/1 2/3/1 19/3/1
f 21/3/1 2/3/1 20/3/1
f 22/3/1 2/3/1 21/3/1
f 23/3/1 2/3/1 22/3/1
f 24/3/1 2/3/1 23/3/1
f 25/3/1 2/3/1 24/3/1
f 26/3/1 2/3/1 25/3/1
f 27/4/2 28/4/2 29/4/2
f 29/4/2 28/4/2 30/4/2
f 30/4/2 28/4/2 31/4/2
f 31/4/2 28/4/2 32/4/2
f 32/4/2 28/4/2 33/4/2
f 33/4/2 28/4/2 34/4/2
f 34/4/2 28/4/2 35/4/2
f 35/4/2 28/4/2 36/4/2
f 36/4/2 28/4/2 37/4/2
f 37/4/2 28/4/2 38/4/2
f 38/4/2 28/4/2 39/4/2
f 39/4/2 28/4/2 40/4/2
f 40/4/2 28/4/2 41/4/2
f 41/4/2 28/4/2 42/4/2
f 42/4/2 28/4/2 43/4/2
f 43/4/2 28/4/2 44/4/2
f 44/4/2 28/4/2 45/4/2
f 45/4/2 28/4/2 46/4/2
f 46/4/2 28/4/2 47/4/2
f 47/4/2 28/4/2 48/4/2
f 48/4/2 28/4/2 49/4/2
f 49/4/2 28/4/2 50/4/2
f 50/4/2 28/4/2 51/4/2
f 51/4/2 28/4/2 52/4/2
f 55/3/3 54/3/3 53/3/3
f 56/3/3 54/3/3 55/3/3
f 57/2/3 56/2/3 55/2/3
f 58/2/3 56/2/3 57/2/3
f 59/4/3 58/4/3 57/4/3
f 60/4/3 58/4/3 59/4/3
f 63/3/3 62/3/3 61/3/3
f 64/3/3 62/3/3 63/3/3
f 65/5/3 64/5/3 63/5/3
f 66/5/3 64/5/3 65/5/3
f 67/4/3 66/4/3 65/4/3
f 68/4/3 66/4/3 67/4/3
f 71/3/3 70/3/3 69/3/3
f 72/3/3 70/3/3 71/3/3
f 73/5/3 72/5/3 71/5/3
f 74/5/3 72/5/3 73/5/3
f 75/4/3 74/4/3 73/4/3
f 76/4/3 74/4/3 75/4/3
f 79/3/3 78/3/3 77/3/3
f 80/3/3 78/3/3 79/3/3
f 81/5/3 80/5/3 79/5/3
f 82/5/3 80/5/3 81/5/3
f 83/4/3 82/4/3 81/4/3
f 84/4/3 82/4/3 83/4/3
f 87/3/3 86/3/3 85/3/3
f 88/3/3 86/3/3 87/3/3
f 89/5/3 88/5/3 87/5/3
f 90/5/3 88/5/3 89/5/3
f 91/4/3 90/4/3 89/4/3
f 92/4/3 90/4/3 91/4/3
f 95/3/3 94/3/3 93/3/3
f 96/3/3 94/3/3 95/3/3
f 97/5/3 96/5/3 95/5/3
f 98/5/3 96/5/3 97/5/3
f 99/4/3 98/4/3 97/4/3
f 100/4/3 98/4/3 99/4/3
f 103/3/3 102/3/3 101/3/3
f 104/3/3 102/3/3 103/3/3
f 105/5/3 104/5/3 103/5/3
f 106/5/3 104/5/3 105/5/3
f 107/4/3 106/4/3 105/4/3
f 108/4/3 106/4/3 107/4/3
f 111/3/3 110/3/3 109/3/3
f 112/3/3 110/3/3 111/3/3
f 113/5/3 112/5/3 111/5/3
f 114/5/3 112/5/3 113/5/3
f 115/4/3 114/4/3 113/4/3
f 116/4/3 114/4/3 115/4/3
f 119/3/3 118/3/3 117/3/3
f 120/3/3 118/3/3 119/3/3
f 121/5/3 120/5/3 119/5/3
f 122/5/3 120/5/3 121/5/3
f 123/4/3 122/4/3 121/4/3
f 124/4/3 122/4/3 123/4/3
f 127/3/3 126/3/3 125/3/3
f 128/3/3 126/3/3 127/3/3
f 129/5/3 128/5/3 127/5/3
f 130/5/3 128/5/3 129/5/3
f 131/4/3 130/4/3 129/4/3
f 132/4/3 130/4/3 131/4/3
f 135/3/3 134/3/3 133/3/3
f 136/3/3 134/3/3 135/3/3
f 137/5/3 136/5/3 135/5/3
f 138/5/3 136/5/3 137/5/3
f 139/4/3 138/4/3 137/4/3
f 140/4/3 138/4/3 139/4/3
f 143/3/3 142/3/3 141/3/3
f 144/3/3 142/3/3 143/3/3
f 145/1/3 144/1/3 143/1/3
f 146/1/3 144/1/3 145/1/3
f 147/4/3 146/4/3 145/4/3
f 148/4/3 146/4/3 147/4/3
f 149/3/4 150/3/4 151/3/4
f 151/3/4 150/3/4 152/3/4
f 151/1/4 152/1/4 153/1/4
f 153/1/4 152/1/4 154/1/4
f 153/4/4 154/4/4 155/4/4
f 155/4/4 154/4/4 156/4/4
f 161/3/5 158/3/5 157/3/5
f 161/2/5 159/2/5 158/2/5
f 162/4/5 160/4/5 159/4/5
f 162/2/5 159/2/5 161/2/5
f 163/3/5 161/3/5 157/3/5
f 164/1/5 162/1/5 161/1/5
f 164/3/5 161/3/5 163/3/5
f 165/4/5 160/4/5 162/4/5
f 165/1/5 162/1/5 164/1/5
f 166/4/5 160/4/5 165/4/5
f 167/3/6 168/3/6 171/3/6
f 168/2/6 169/2/6 172/2/6
f 171/3/6 168/3/6 172/3/6
f 169/4/6 170/4/6 173/4/6
f 172/2/6 169/2/6 173/2/6
f 173/4/6 170/4/6 174/4/6
f 175/3/6 176/3/6 179/3/6
f 176/5/6 177/5/6 180/5/6
f 179/3/6 176/3/6 180/3/6
f 177/4/6 178/4/6 181/4/6
f 180/5/6 177/5/6 181/5/6
f 181/4/6 178/4/6 182/4/6
f 183/3/6 184/3/6 187/3/6
f 184/5/6 185/5/6 188/5/6
f 187/3/6 184/3/6 188/3/6
f 185/4/6 186/4/6 189/4/6
f 188/5/6 185/5/6 189/5/6
f 189/4/6 186/4/6 190/4/6
f 191/3/6 192/3/6 195/3/6
f 192/5/6 193/5/6 196/5/6
f 195/3/6 192/3/6 196/3/6
f 193/4/6 194/4/6 197/4/6
f 196/5/6 193/5/6 197/5/6
f 197/4/6 194/4/6 198/4/6
f 199/3/6 200/3/6 203/3/6
f 200/5/6 201/5/6 204/5/6
f 203/3/6 200/3/6 204/3/6
f 201/4/6 202/4/6 205/4/6
f 204/5/6 201/5/6 205/5/6
f 205/4/6 202/4/6 206/4/6
f 207/3/6 208/3/6 211/3/6
f 208/5/6 209/5/6 212/5/6
f 211/3/6 208/3/6 212/3/6
f 209/4/6 210/4/6 213/4/6
f 212/5/6 209/5/6 213/5/6
f 213/4/6 210/4/6 214/4/6
f 215/3/6 216/3/6 219/3/6
f 216/5/6 217/5/6 220/5/6
f 219/3/6 216/3/6 220/3/6
f 217/4/6 218/4/6 221/4/6
f 220/5/6 217/5/6 221/5/6
f 221/4/6 218/4/6 222/4/6
f 223/3/6 224/3/6 227/3/6
f 224/5/6 225/5/6 228/5/6
f 227/3/6 224/3/6 228/3/6
f 225/4/6 226/4/6 229/4/6
f 228/5/6 225/5/6 229/5/6
f 229/4/6 226/4/6 230/4/6
f 231/3/6 232/3/6 235/3/6
f 232/5/6 233/5/6 236/5/6
f 235/3/6 232/3/6 236/3/6
f 233/4/6 234/4/6 237/4/6
f 236/5/6 233/5/6 237/5/6
f 237/4/6 234/4/6 238/4/6
f 239/3/6 240/3/6 243/3/6
f 240/5/6 241/5/6 244/5/6
f 243/3/6 240/3/6 244/3/6
f 241/4/6 242/4/6 245/4/6
f 244/5/6 241/5/6 245/5/6
f 245/4/6 242/4/6 246/4/6
f 247/3/6 248/3/6 251/3/6
f 248/5/6 249/5/6 252/5/6
f 251/3/6 248/3/6 252/3/6
f 249/4/6 250/4/6 253/4/6
f 252/5/6 249/5/6 253/5/6
f 253/4/6 250/4/6 254/4/6
f 255/3/6 256/3/6 259/3/6
f 256/1/6 257/1/6 260/1/6
f 259/3/6 256/3/6 260/3/6
f 257/4/6 258/4/6 261/4/6
f 260/1/6 257/1/6 261/1/6
f 261/4/6 258/4/6 262/4/6
