# MagicaVoxel @ Ephtracy

# group
o 

# material
mtllib 4voxCube.mtl
usemtl palette

# normals
vn -1 0 0
vn 1 0 0
vn 0 0 1
vn 0 0 -1
vn 0 -1 0
vn 0 1 0

# texcoords
vt 0.845703 0.5
vt 0.876953 0.5
vt 0.908203 0.5
vt 0.939453 0.5
vt 0.970703 0.5

# verts
v -0.2 0 0.2
v -0.2 0 -0.2
v -0.2 0.1 0.2
v -0.2 0.1 0.1
v -0.2 0.2 0.1
v -0.2 0.2 0
v -0.2 0.3 0
v -0.2 0.3 -0.1
v -0.2 0.4 -0.1
v -0.2 0.4 -0.2
v 0.2 0 0.2
v 0.2 0 -0.2
v 0.2 0.1 0.2
v 0.2 0.1 0.1
v 0.2 0.2 0.1
v 0.2 0.2 0
v 0.2 0.3 0
v 0.2 0.3 -0.1
v 0.2 0.4 -0.1
v 0.2 0.4 -0.2
v -0.2 0 0.2
v -0.2 0.1 0.2
v -0.1 0 0.2
v -0.1 0.1 0.2
v 0.1 0 0.2
v 0.1 0.1 0.2
v 0.2 0 0.2
v 0.2 0.1 0.2
v -0.2 0.1 0.1
v -0.2 0.2 0.1
v -0.1 0.1 0.1
v -0.1 0.2 0.1
v 0.1 0.1 0.1
v 0.1 0.2 0.1
v 0.2 0.1 0.1
v 0.2 0.2 0.1
v -0.2 0.2 0
v -0.2 0.3 0
v -0.1 0.2 0
v -0.1 0.3 0
v 0.1 0.2 0
v 0.1 0.3 0
v 0.2 0.2 0
v 0.2 0.3 0
v -0.2 0.3 -0.1
v -0.2 0.4 -0.1
v -0.1 0.3 -0.1
v -0.1 0.4 -0.1
v 0.1 0.3 -0.1
v 0.1 0.4 -0.1
v 0.2 0.3 -0.1
v 0.2 0.4 -0.1
v -0.2 0 -0.2
v -0.2 0.4 -0.2
v -0.1 0 -0.2
v -0.1 0.4 -0.2
v 0.1 0 -0.2
v 0.1 0.4 -0.2
v 0.2 0 -0.2
v 0.2 0.4 -0.2
v -0.2 0 0.2
v -0.1 0 0.2
v 0.1 0 0.2
v 0.2 0 0.2
v -0.1 0 -0.1
v 0.1 0 -0.1
v -0.2 0 -0.2
v -0.1 0 -0.2
v 0.1 0 -0.2
v 0.2 0 -0.2
v -0.2 0.1 0.2
v -0.1 0.1 0.2
v 0.1 0.1 0.2
v 0.2 0.1 0.2
v -0.2 0.1 0.1
v -0.1 0.1 0.1
v 0.1 0.1 0.1
v 0.2 0.1 0.1
v -0.2 0.2 0.1
v -0.1 0.2 0.1
v 0.1 0.2 0.1
v 0.2 0.2 0.1
v -0.2 0.2 0
v -0.1 0.2 0
v 0.1 0.2 0
v 0.2 0.2 0
v -0.2 0.3 0
v -0.1 0.3 0
v 0.1 0.3 0
v 0.2 0.3 0
v -0.2 0.3 -0.1
v -0.1 0.3 -0.1
v 0.1 0.3 -0.1
v 0.2 0.3 -0.1
v -0.2 0.4 -0.1
v -0.1 0.4 -0.1
v 0.1 0.4 -0.1
v 0.2 0.4 -0.1
v -0.2 0.4 -0.2
v -0.1 0.4 -0.2
v 0.1 0.4 -0.2
v 0.2 0.4 -0.2

# faces
f 3/3/1 2/3/1 1/3/1
f 4/3/1 2/3/1 3/3/1
f 5/3/1 2/3/1 4/3/1
f 6/3/1 2/3/1 5/3/1
f 7/3/1 2/3/1 6/3/1
f 8/3/1 2/3/1 7/3/1
f 9/3/1 2/3/1 8/3/1
f 10/3/1 2/3/1 9/3/1
f 11/4/2 12/4/2 13/4/2
f 13/4/2 12/4/2 14/4/2
f 14/4/2 12/4/2 15/4/2
f 15/4/2 12/4/2 16/4/2
f 16/4/2 12/4/2 17/4/2
f 17/4/2 12/4/2 18/4/2
f 18/4/2 12/4/2 19/4/2
f 19/4/2 12/4/2 20/4/2
f 23/3/3 22/3/3 21/3/3
f 24/3/3 22/3/3 23/3/3
f 25/2/3 24/2/3 23/2/3
f 26/2/3 24/2/3 25/2/3
f 27/4/3 26/4/3 25/4/3
f 28/4/3 26/4/3 27/4/3
f 31/3/3 30/3/3 29/3/3
f 32/3/3 30/3/3 31/3/3
f 33/5/3 32/5/3 31/5/3
f 34/5/3 32/5/3 33/5/3
f 35/4/3 34/4/3 33/4/3
f 36/4/3 34/4/3 35/4/3
f 39/3/3 38/3/3 37/3/3
f 40/3/3 38/3/3 39/3/3
f 41/5/3 40/5/3 39/5/3
f 42/5/3 40/5/3 41/5/3
f 43/4/3 42/4/3 41/4/3
f 44/4/3 42/4/3 43/4/3
f 47/3/3 46/3/3 45/3/3
f 48/3/3 46/3/3 47/3/3
f 49/1/3 48/1/3 47/1/3
f 50/1/3 48/1/3 49/1/3
f 51/4/3 50/4/3 49/4/3
f 52/4/3 50/4/3 51/4/3
f 53/3/4 54/3/4 55/3/4
f 55/3/4 54/3/4 56/3/4
f 55/1/4 56/1/4 57/1/4
f 57/1/4 56/1/4 58/1/4
f 57/4/4 58/4/4 59/4/4
f 59/4/4 58/4/4 60/4/4
f 65/3/5 62/3/5 61/3/5
f 65/2/5 63/2/5 62/2/5
f 66/4/5 64/4/5 63/4/5
f 66/2/5 63/2/5 65/2/5
f 67/3/5 65/3/5 61/3/5
f 68/1/5 66/1/5 65/1/5
f 68/3/5 65/3/5 67/3/5
f 69/4/5 64/4/5 66/4/5
f 69/1/5 66/1/5 68/1/5
f 70/4/5 64/4/5 69/4/5
f 71/3/6 72/3/6 75/3/6
f 72/2/6 73/2/6 76/2/6
f 75/3/6 72/3/6 76/3/6
f 73/4/6 74/4/6 77/4/6
f 76/2/6 73/2/6 77/2/6
f 77/4/6 74/4/6 78/4/6
f 79/3/6 80/3/6 83/3/6
f 80/5/6 81/5/6 84/5/6
f 83/3/6 80/3/6 84/3/6
f 81/4/6 82/4/6 85/4/6
f 84/5/6 81/5/6 85/5/6
f 85/4/6 82/4/6 86/4/6
f 87/3/6 88/3/6 91/3/6
f 88/5/6 89/5/6 92/5/6
f 91/3/6 88/3/6 92/3/6
f 89/4/6 90/4/6 93/4/6
f 92/5/6 89/5/6 93/5/6
f 93/4/6 90/4/6 94/4/6
f 95/3/6 96/3/6 99/3/6
f 96/1/6 97/1/6 100/1/6
f 99/3/6 96/3/6 100/3/6
f 97/4/6 98/4/6 101/4/6
f 100/1/6 97/1/6 101/1/6
f 101/4/6 98/4/6 102/4/6
