# MagicaVoxel @ Ephtracy

# group
o 

# material
mtllib 8voxCube.mtl
usemtl palette

# normals
vn -1 0 0
vn 1 0 0
vn 0 0 1
vn 0 0 -1
vn 0 -1 0
vn 0 1 0

# texcoords
vt 0.845703 0.5
vt 0.876953 0.5
vt 0.908203 0.5
vt 0.939453 0.5
vt 0.970703 0.5

# verts
v -0.4 0 0.4
v -0.4 0 -0.4
v -0.4 0.1 0.4
v -0.4 0.1 0.3
v -0.4 0.2 0.3
v -0.4 0.2 0.2
v -0.4 0.3 0.2
v -0.4 0.3 0.1
v -0.4 0.4 0.1
v -0.4 0.4 0
v -0.4 0.5 0
v -0.4 0.5 -0.1
v -0.4 0.6 -0.1
v -0.4 0.6 -0.2
v -0.4 0.7 -0.2
v -0.4 0.7 -0.3
v -0.4 0.8 -0.3
v -0.4 0.8 -0.4
v 0.4 0 0.4
v 0.4 0 -0.4
v 0.4 0.1 0.4
v 0.4 0.1 0.3
v 0.4 0.2 0.3
v 0.4 0.2 0.2
v 0.4 0.3 0.2
v 0.4 0.3 0.1
v 0.4 0.4 0.1
v 0.4 0.4 0
v 0.4 0.5 0
v 0.4 0.5 -0.1
v 0.4 0.6 -0.1
v 0.4 0.6 -0.2
v 0.4 0.7 -0.2
v 0.4 0.7 -0.3
v 0.4 0.8 -0.3
v 0.4 0.8 -0.4
v -0.4 0 0.4
v -0.4 0.1 0.4
v -0.3 0 0.4
v -0.3 0.1 0.4
v 0.3 0 0.4
v 0.3 0.1 0.4
v 0.4 0 0.4
v 0.4 0.1 0.4
v -0.4 0.1 0.3
v -0.4 0.2 0.3
v -0.3 0.1 0.3
v -0.3 0.2 0.3
v 0.3 0.1 0.3
v 0.3 0.2 0.3
v 0.4 0.1 0.3
v 0.4 0.2 0.3
v -0.4 0.2 0.2
v -0.4 0.3 0.2
v -0.3 0.2 0.2
v -0.3 0.3 0.2
v 0.3 0.2 0.2
v 0.3 0.3 0.2
v 0.4 0.2 0.2
v 0.4 0.3 0.2
v -0.4 0.3 0.1
v -0.4 0.4 0.1
v -0.3 0.3 0.1
v -0.3 0.4 0.1
v 0.3 0.3 0.1
v 0.3 0.4 0.1
v 0.4 0.3 0.1
v 0.4 0.4 0.1
v -0.4 0.4 0
v -0.4 0.5 0
v -0.3 0.4 0
v -0.3 0.5 0
v 0.3 0.4 0
v 0.3 0.5 0
v 0.4 0.4 0
v 0.4 0.5 0
v -0.4 0.5 -0.1
v -0.4 0.6 -0.1
v -0.3 0.5 -0.1
v -0.3 0.6 -0.1
v 0.3 0.5 -0.1
v 0.3 0.6 -0.1
v 0.4 0.5 -0.1
v 0.4 0.6 -0.1
v -0.4 0.6 -0.2
v -0.4 0.7 -0.2
v -0.3 0.6 -0.2
v -0.3 0.7 -0.2
v 0.3 0.6 -0.2
v 0.3 0.7 -0.2
v 0.4 0.6 -0.2
v 0.4 0.7 -0.2
v -0.4 0.7 -0.3
v -0.4 0.8 -0.3
v -0.3 0.7 -0.3
v -0.3 0.8 -0.3
v 0.3 0.7 -0.3
v 0.3 0.8 -0.3
v 0.4 0.7 -0.3
v 0.4 0.8 -0.3
v -0.4 0 -0.4
v -0.4 0.8 -0.4
v -0.3 0 -0.4
v -0.3 0.8 -0.4
v 0.3 0 -0.4
v 0.3 0.8 -0.4
v 0.4 0 -0.4
v 0.4 0.8 -0.4
v -0.4 0 0.4
v -0.3 0 0.4
v 0.3 0 0.4
v 0.4 0 0.4
v -0.3 0 -0.3
v 0.3 0 -0.3
v -0.4 0 -0.4
v -0.3 0 -0.4
v 0.3 0 -0.4
v 0.4 0 -0.4
v -0.4 0.1 0.4
v -0.3 0.1 0.4
v 0.3 0.1 0.4
v 0.4 0.1 0.4
v -0.4 0.1 0.3
v -0.3 0.1 0.3
v 0.3 0.1 0.3
v 0.4 0.1 0.3
v -0.4 0.2 0.3
v -0.3 0.2 0.3
v 0.3 0.2 0.3
v 0.4 0.2 0.3
v -0.4 0.2 0.2
v -0.3 0.2 0.2
v 0.3 0.2 0.2
v 0.4 0.2 0.2
v -0.4 0.3 0.2
v -0.3 0.3 0.2
v 0.3 0.3 0.2
v 0.4 0.3 0.2
v -0.4 0.3 0.1
v -0.3 0.3 0.1
v 0.3 0.3 0.1
v 0.4 0.3 0.1
v -0.4 0.4 0.1
v -0.3 0.4 0.1
v 0.3 0.4 0.1
v 0.4 0.4 0.1
v -0.4 0.4 0
v -0.3 0.4 0
v 0.3 0.4 0
v 0.4 0.4 0
v -0.4 0.5 0
v -0.3 0.5 0
v 0.3 0.5 0
v 0.4 0.5 0
v -0.4 0.5 -0.1
v -0.3 0.5 -0.1
v 0.3 0.5 -0.1
v 0.4 0.5 -0.1
v -0.4 0.6 -0.1
v -0.3 0.6 -0.1
v 0.3 0.6 -0.1
v 0.4 0.6 -0.1
v -0.4 0.6 -0.2
v -0.3 0.6 -0.2
v 0.3 0.6 -0.2
v 0.4 0.6 -0.2
v -0.4 0.7 -0.2
v -0.3 0.7 -0.2
v 0.3 0.7 -0.2
v 0.4 0.7 -0.2
v -0.4 0.7 -0.3
v -0.3 0.7 -0.3
v 0.3 0.7 -0.3
v 0.4 0.7 -0.3
v -0.4 0.8 -0.3
v -0.3 0.8 -0.3
v 0.3 0.8 -0.3
v 0.4 0.8 -0.3
v -0.4 0.8 -0.4
v -0.3 0.8 -0.4
v 0.3 0.8 -0.4
v 0.4 0.8 -0.4

# faces
f 3/3/1 2/3/1 1/3/1
f 4/3/1 2/3/1 3/3/1
f 5/3/1 2/3/1 4/3/1
f 6/3/1 2/3/1 5/3/1
f 7/3/1 2/3/1 6/3/1
f 8/3/1 2/3/1 7/3/1
f 9/3/1 2/3/1 8/3/1
f 10/3/1 2/3/1 9/3/1
f 11/3/1 2/3/1 10/3/1
f 12/3/1 2/3/1 11/3/1
f 13/3/1 2/3/1 12/3/1
f 14/3/1 2/3/1 13/3/1
f 15/3/1 2/3/1 14/3/1
f 16/3/1 2/3/1 15/3/1
f 17/3/1 2/3/1 16/3/1
f 18/3/1 2/3/1 17/3/1
f 19/4/2 20/4/2 21/4/2
f 21/4/2 20/4/2 22/4/2
f 22/4/2 20/4/2 23/4/2
f 23/4/2 20/4/2 24/4/2
f 24/4/2 20/4/2 25/4/2
f 25/4/2 20/4/2 26/4/2
f 26/4/2 20/4/2 27/4/2
f 27/4/2 20/4/2 28/4/2
f 28/4/2 20/4/2 29/4/2
f 29/4/2 20/4/2 30/4/2
f 30/4/2 20/4/2 31/4/2
f 31/4/2 20/4/2 32/4/2
f 32/4/2 20/4/2 33/4/2
f 33/4/2 20/4/2 34/4/2
f 34/4/2 20/4/2 35/4/2
f 35/4/2 20/4/2 36/4/2
f 39/3/3 38/3/3 37/3/3
f 40/3/3 38/3/3 39/3/3
f 41/2/3 40/2/3 39/2/3
f 42/2/3 40/2/3 41/2/3
f 43/4/3 42/4/3 41/4/3
f 44/4/3 42/4/3 43/4/3
f 47/3/3 46/3/3 45/3/3
f 48/3/3 46/3/3 47/3/3
f 49/5/3 48/5/3 47/5/3
f 50/5/3 48/5/3 49/5/3
f 51/4/3 50/4/3 49/4/3
f 52/4/3 50/4/3 51/4/3
f 55/3/3 54/3/3 53/3/3
f 56/3/3 54/3/3 55/3/3
f 57/5/3 56/5/3 55/5/3
f 58/5/3 56/5/3 57/5/3
f 59/4/3 58/4/3 57/4/3
f 60/4/3 58/4/3 59/4/3
f 63/3/3 62/3/3 61/3/3
f 64/3/3 62/3/3 63/3/3
f 65/5/3 64/5/3 63/5/3
f 66/5/3 64/5/3 65/5/3
f 67/4/3 66/4/3 65/4/3
f 68/4/3 66/4/3 67/4/3
f 71/3/3 70/3/3 69/3/3
f 72/3/3 70/3/3 71/3/3
f 73/5/3 72/5/3 71/5/3
f 74/5/3 72/5/3 73/5/3
f 75/4/3 74/4/3 73/4/3
f 76/4/3 74/4/3 75/4/3
f 79/3/3 78/3/3 77/3/3
f 80/3/3 78/3/3 79/3/3
f 81/5/3 80/5/3 79/5/3
f 82/5/3 80/5/3 81/5/3
f 83/4/3 82/4/3 81/4/3
f 84/4/3 82/4/3 83/4/3
f 87/3/3 86/3/3 85/3/3
f 88/3/3 86/3/3 87/3/3
f 89/5/3 88/5/3 87/5/3
f 90/5/3 88/5/3 89/5/3
f 91/4/3 90/4/3 89/4/3
f 92/4/3 90/4/3 91/4/3
f 95/3/3 94/3/3 93/3/3
f 96/3/3 94/3/3 95/3/3
f 97/1/3 96/1/3 95/1/3
f 98/1/3 96/1/3 97/1/3
f 99/4/3 98/4/3 97/4/3
f 100/4/3 98/4/3 99/4/3
f 101/3/4 102/3/4 103/3/4
f 103/3/4 102/3/4 104/3/4
f 103/1/4 104/1/4 105/1/4
f 105/1/4 104/1/4 106/1/4
f 105/4/4 106/4/4 107/4/4
f 107/4/4 106/4/4 108/4/4
f 113/3/5 110/3/5 109/3/5
f 113/2/5 111/2/5 110/2/5
f 114/4/5 112/4/5 111/4/5
f 114/2/5 111/2/5 113/2/5
f 115/3/5 113/3/5 109/3/5
f 116/1/5 114/1/5 113/1/5
f 116/3/5 113/3/5 115/3/5
f 117/4/5 112/4/5 114/4/5
f 117/1/5 114/1/5 116/1/5
f 118/4/5 112/4/5 117/4/5
f 119/3/6 120/3/6 123/3/6
f 120/2/6 121/2/6 124/2/6
f 123/3/6 120/3/6 124/3/6
f 121/4/6 122/4/6 125/4/6
f 124/2/6 121/2/6 125/2/6
f 125/4/6 122/4/6 126/4/6
f 127/3/6 128/3/6 131/3/6
f 128/5/6 129/5/6 132/5/6
f 131/3/6 128/3/6 132/3/6
f 129/4/6 130/4/6 133/4/6
f 132/5/6 129/5/6 133/5/6
f 133/4/6 130/4/6 134/4/6
f 135/3/6 136/3/6 139/3/6
f 136/5/6 137/5/6 140/5/6
f 139/3/6 136/3/6 140/3/6
f 137/4/6 138/4/6 141/4/6
f 140/5/6 137/5/6 141/5/6
f 141/4/6 138/4/6 142/4/6
f 143/3/6 144/3/6 147/3/6
f 144/5/6 145/5/6 148/5/6
f 147/3/6 144/3/6 148/3/6
f 145/4/6 146/4/6 149/4/6
f 148/5/6 145/5/6 149/5/6
f 149/4/6 146/4/6 150/4/6
f 151/3/6 152/3/6 155/3/6
f 152/5/6 153/5/6 156/5/6
f 155/3/6 152/3/6 156/3/6
f 153/4/6 154/4/6 157/4/6
f 156/5/6 153/5/6 157/5/6
f 157/4/6 154/4/6 158/4/6
f 159/3/6 160/3/6 163/3/6
f 160/5/6 161/5/6 164/5/6
f 163/3/6 160/3/6 164/3/6
f 161/4/6 162/4/6 165/4/6
f 164/5/6 161/5/6 165/5/6
f 165/4/6 162/4/6 166/4/6
f 167/3/6 168/3/6 171/3/6
f 168/5/6 169/5/6 172/5/6
f 171/3/6 168/3/6 172/3/6
f 169/4/6 170/4/6 173/4/6
f 172/5/6 169/5/6 173/5/6
f 173/4/6 170/4/6 174/4/6
f 175/3/6 176/3/6 179/3/6
f 176/1/6 177/1/6 180/1/6
f 179/3/6 176/3/6 180/3/6
f 177/4/6 178/4/6 181/4/6
f 180/1/6 177/1/6 181/1/6
f 181/4/6 178/4/6 182/4/6
